<svg width="250" height="250" viewBox="0 0 250 250" fill="none" xmlns="http://www.w3.org/2000/svg">
<path d="M250 191.2H0V191.325H250V191.2Z" fill="#EBEBEB"/>
<path d="M203.56 194.605H166.665V194.73H203.56V194.605Z" fill="#EBEBEB"/>
<path d="M56.155 195.445H51.81V195.57H56.155V195.445Z" fill="#EBEBEB"/>
<path d="M213.655 199.245H204.06V199.37H213.655V199.245Z" fill="#EBEBEB"/>
<path d="M124.335 197.555H100V197.68H124.335V197.555Z" fill="#EBEBEB"/>
<path d="M95.55 197.555H83.36V197.68H95.55V197.555Z" fill="#EBEBEB"/>
<path d="M42.805 195.445H26.23V195.57H42.805V195.445Z" fill="#EBEBEB"/>
<path d="M118.5 168.9H21.955C21.1987 168.899 20.4738 168.597 19.9394 168.062C19.4051 167.527 19.105 166.801 19.105 166.045V30.33C19.1116 29.578 19.4146 28.859 19.9482 28.3291C20.4818 27.7992 21.203 27.5013 21.955 27.5H118.5C119.257 27.5 119.983 27.8008 120.519 28.3362C121.054 28.8716 121.355 29.5978 121.355 30.355V166.045C121.355 166.802 121.054 167.528 120.519 168.064C119.983 168.599 119.257 168.9 118.5 168.9ZM21.955 27.6C21.2318 27.6013 20.5387 27.8895 20.0278 28.4014C19.5169 28.9132 19.23 29.6068 19.23 30.33V166.045C19.23 166.768 19.5169 167.462 20.0278 167.974C20.5387 168.485 21.2318 168.774 21.955 168.775H118.5C119.224 168.774 119.917 168.486 120.429 167.974C120.941 167.462 121.229 166.769 121.23 166.045V30.33C121.229 29.6064 120.941 28.9127 120.429 28.4011C119.917 27.8894 119.224 27.6013 118.5 27.6H21.955Z" fill="#EBEBEB"/>
<path d="M226.655 168.9H130.105C129.348 168.899 128.623 168.597 128.088 168.062C127.553 167.527 127.251 166.802 127.25 166.045V30.33C127.258 29.5776 127.562 28.8585 128.096 28.3288C128.631 27.7991 129.353 27.5013 130.105 27.5H226.655C227.406 27.5026 228.126 27.8011 228.659 28.3309C229.191 28.8606 229.493 29.5789 229.5 30.33V166.045C229.5 166.8 229.201 167.525 228.667 168.06C228.134 168.595 227.41 168.897 226.655 168.9ZM130.105 27.6C129.381 27.6013 128.688 27.8894 128.176 28.4011C127.664 28.9127 127.376 29.6064 127.375 30.33V166.045C127.376 166.769 127.664 167.462 128.176 167.974C128.688 168.486 129.381 168.774 130.105 168.775H226.655C227.379 168.774 228.072 168.486 228.584 167.974C229.096 167.462 229.384 166.769 229.385 166.045V30.33C229.384 29.6064 229.096 28.9127 228.584 28.4011C228.072 27.8894 227.379 27.6013 226.655 27.6H130.105Z" fill="#EBEBEB"/>
<path d="M164.375 189.76H86.995V191.195H164.375V189.76Z" fill="#F0F0F0"/>
<path d="M194.035 131.625C194.035 131.625 200.44 140.625 209.83 132.94C218.55 125.815 209.98 108.575 209.98 108.575C209.98 108.575 220.115 111.76 221.75 98.395C223.385 85.03 209 88.425 209 88.425C214.125 78.235 208.25 77.925 203.865 78.825C205.195 76.325 205.615 73.255 202.45 70.67C195.205 64.755 190.265 71.67 190.265 71.67C190.265 71.67 186.495 58.71 177.575 66.275V138.625C189.15 148.43 194.035 131.625 194.035 131.625Z" fill="#F5F5F5"/>
<path d="M180.915 60.86H33.165V191.2H180.915V60.86Z" fill="#FAFAFA"/>
<path d="M170.285 40.61H43.795L33.165 60.86H180.915L170.285 40.61Z" fill="#F0F0F0"/>
<path d="M158.725 177.82V164.435H150.045V151.055H86.85V164.435H95.53V177.82H104.215V191.2H167.405V177.82H158.725Z" fill="#F5F5F5"/>
<path d="M86.85 151.055V164.435H95.53V177.82H104.215V191.2H33.165V151.055H86.85Z" fill="#EBEBEB"/>
<path d="M150.045 163H86.85V164.435H150.045V163Z" fill="#F0F0F0"/>
<path d="M158.725 176.38H95.53V177.815H158.725V176.38Z" fill="#F0F0F0"/>
<path d="M82.5 72.665H40.945V151.055H82.5V72.665Z" fill="#F0F0F0"/>
<path d="M40.165 151.055H40.945L40.945 72.6649H40.165L40.165 151.055Z" fill="#E6E6E6"/>
<path d="M76.29 114.165C77.563 114.165 78.595 113.133 78.595 111.86C78.595 110.587 77.563 109.555 76.29 109.555C75.017 109.555 73.985 110.587 73.985 111.86C73.985 113.133 75.017 114.165 76.29 114.165Z" fill="#FAFAFA"/>
<path d="M157.33 72.665H96.925V132.945H157.33V72.665Z" fill="#F5F5F5"/>
<path d="M154.815 130.115V75.495H99.45V130.115H154.815Z" fill="white"/>
<path d="M99.445 75.5V130.115H101.075C101.075 130.115 108.545 112.24 110.625 75.495L99.445 75.5Z" fill="#FAFAFA"/>
<path d="M154.815 75.5V130.115H153.18C153.18 130.115 145.715 112.24 143.635 75.5H154.815Z" fill="#FAFAFA"/>
<path d="M156.29 100.905H97.97V104.705H156.29V100.905Z" fill="#F5F5F5"/>
<path d="M129.03 131.965V73.645H125.23V131.965H129.03Z" fill="#F5F5F5"/>
<path d="M125 213.78C178.541 213.78 221.945 211.246 221.945 208.12C221.945 204.994 178.541 202.46 125 202.46C71.4588 202.46 28.055 204.994 28.055 208.12C28.055 211.246 71.4588 213.78 125 213.78Z" fill="#F5F5F5"/>
<path d="M92.295 208.12H76.54C75.9459 208.12 75.3762 207.884 74.9561 207.464C74.536 207.044 74.3 206.474 74.3 205.88V178.425H94.535V205.885C94.5337 206.478 94.2971 207.047 93.8772 207.466C93.4572 207.885 92.8882 208.12 92.295 208.12Z" fill="#B83232"/>
<path opacity="0.2" d="M94.535 178.425H74.305V190.34L94.535 185.955V178.425Z" fill="black"/>
<path d="M103.24 142.405C103.24 134.846 106.243 127.597 111.587 122.252C116.932 116.908 124.181 113.905 131.74 113.905C139.299 113.905 146.548 116.908 151.893 122.252C157.237 127.597 160.24 134.846 160.24 142.405V178.405H103.24V142.405Z" fill="#B83232"/>
<path opacity="0.3" d="M103.24 142.405C103.24 134.846 106.243 127.597 111.587 122.252C116.932 116.908 124.181 113.905 131.74 113.905C139.299 113.905 146.548 116.908 151.893 122.252C157.237 127.597 160.24 134.846 160.24 142.405V178.405H103.24V142.405Z" fill="black"/>
<path d="M36.145 142.4V174.875C36.145 175.342 36.237 175.804 36.4157 176.235C36.5944 176.666 36.8564 177.057 37.1865 177.387C37.5167 177.717 37.9087 177.978 38.3399 178.156C38.7712 178.334 39.2334 178.426 39.7 178.425H103.24V142.4C103.24 134.841 106.243 127.592 111.587 122.247C116.932 116.903 124.181 113.9 131.74 113.9H64.645C57.0863 113.9 49.8372 116.903 44.4925 122.247C39.1477 127.592 36.145 134.841 36.145 142.4Z" fill="#B83232"/>
<path opacity="0.2" d="M36.15 167.795H103.245V157.795H36.15V167.795Z" fill="black"/>
<path opacity="0.2" d="M36.15 154.69H103.245V144.69H36.15V154.69Z" fill="black"/>
<path d="M107.445 112.15H99.28V112.65H107.445V112.15Z" fill="#B83232"/>
<path d="M95 112.15H90.61V112.65H95V112.15Z" fill="#B83232"/>
<path d="M68.96 151.77V111.27C68.9601 111.108 68.9249 110.949 68.857 110.802C68.7891 110.656 68.69 110.526 68.5667 110.422C68.4434 110.318 68.2988 110.241 68.1431 110.199C67.9874 110.156 67.8242 110.148 67.665 110.175L53.53 112.5V118.365H64.335V151.68C63.2439 152.181 62.3551 153.038 61.8139 154.11C61.2727 155.181 61.1111 156.405 61.3556 157.581C61.6001 158.756 62.2361 159.814 63.1598 160.581C64.0834 161.349 65.24 161.78 66.4405 161.805C67.641 161.829 68.8143 161.446 69.7687 160.717C70.7231 159.989 71.4021 158.958 71.6946 157.793C71.9871 156.629 71.876 155.399 71.3792 154.306C70.8825 153.213 70.0296 152.321 68.96 151.775V151.77Z" fill="#263238"/>
<path d="M107.295 182.5H180.415C180.949 182.501 181.461 182.292 181.841 181.917C182.221 181.543 182.438 181.034 182.445 180.5C182.445 179.962 182.231 179.445 181.85 179.065C181.47 178.684 180.953 178.47 180.415 178.47H103.24C103.247 179.541 103.677 180.566 104.436 181.321C105.196 182.076 106.224 182.5 107.295 182.5Z" fill="#B83232"/>
<path opacity="0.2" d="M107.295 182.5H137.175C137.709 182.501 138.221 182.292 138.601 181.917C138.981 181.543 139.198 181.034 139.205 180.5C139.205 179.962 138.991 179.445 138.61 179.065C138.23 178.684 137.713 178.47 137.175 178.47H103.24C103.247 179.541 103.677 180.566 104.436 181.321C105.196 182.076 106.224 182.5 107.295 182.5Z" fill="black"/>
<path d="M177.24 203.69L173.01 203.725L171.855 193.93L176.09 193.895L177.24 203.69Z" fill="#FF8B7B"/>
<path opacity="0.2" d="M171.855 193.935L172.45 198.985L176.685 198.945L176.09 193.9L171.855 193.935Z" fill="black"/>
<path d="M211.62 193.305L207.98 195.465L202.055 187.58L205.695 185.42L211.62 193.305Z" fill="#FF8B7B"/>
<path opacity="0.2" d="M202.06 187.58L205.11 191.645L208.755 189.485L205.7 185.42L202.06 187.58Z" fill="black"/>
<path d="M173 203.235L177.625 203.195C177.71 203.196 177.793 203.224 177.862 203.275C177.93 203.326 177.98 203.398 178.005 203.48L179.125 207.235C179.154 207.322 179.161 207.415 179.147 207.505C179.132 207.596 179.097 207.682 179.042 207.756C178.988 207.829 178.917 207.889 178.835 207.93C178.752 207.971 178.662 207.991 178.57 207.99C176.9 207.99 174.485 207.9 172.385 207.92C169.935 207.92 168.845 208.095 165.97 208.12C164.23 208.12 163.62 206.38 164.335 206.215C167.59 205.465 169.275 205.365 172.005 203.575C172.297 203.368 172.643 203.25 173 203.235Z" fill="#263238"/>
<path d="M171.255 204C171.711 203.991 172.165 203.936 172.61 203.835C172.63 203.832 172.649 203.821 172.663 203.806C172.676 203.79 172.684 203.771 172.685 203.75C172.687 203.73 172.683 203.709 172.673 203.691C172.663 203.673 172.648 203.659 172.63 203.65C172.43 203.55 170.63 202.7 170.165 203C170.12 203.029 170.084 203.069 170.059 203.116C170.034 203.164 170.023 203.217 170.025 203.27C170.02 203.365 170.037 203.46 170.076 203.547C170.116 203.634 170.175 203.711 170.25 203.77C170.551 203.953 170.904 204.034 171.255 204ZM172.255 203.7C171.34 203.86 170.645 203.825 170.365 203.6C170.316 203.56 170.277 203.51 170.251 203.453C170.225 203.395 170.213 203.333 170.215 203.27C170.213 203.251 170.216 203.231 170.224 203.214C170.232 203.196 170.244 203.181 170.26 203.17C170.535 203 171.54 203.36 172.265 203.69L172.255 203.7Z" fill="#B83232"/>
<path d="M172.59 203.83C172.61 203.834 172.63 203.834 172.65 203.83C172.665 203.819 172.676 203.805 172.682 203.788C172.688 203.771 172.689 203.752 172.685 203.735C172.685 203.655 172.355 201.835 171.345 201.95C171.08 201.98 171.005 202.11 170.99 202.22C170.92 202.72 171.99 203.61 172.55 203.84L172.59 203.83ZM171.43 202.125C172.035 202.125 172.34 203.125 172.43 203.545C171.875 203.23 171.13 202.51 171.17 202.23C171.17 202.23 171.17 202.145 171.35 202.125H171.43Z" fill="#B83232"/>
<path d="M179.14 86.8149C178.585 90.0299 177.88 93.1149 177.025 96.2299C176.598 97.7833 176.127 99.3316 175.61 100.875C175.34 101.65 175.085 102.42 174.78 103.19C174.635 103.575 174.49 103.96 174.325 104.345L174.09 104.925L173.97 105.21L173.905 105.365L173.815 105.56C173.405 106.444 172.902 107.282 172.315 108.06C171.815 108.765 171.27 109.415 170.735 110.06C169.665 111.32 168.55 112.49 167.42 113.64C165.163 115.907 162.79 118.055 160.31 120.075L158.055 117.83C159.98 115.385 161.92 112.915 163.795 110.47C164.73 109.25 165.64 108.01 166.49 106.785C166.915 106.175 167.32 105.56 167.675 104.96C167.996 104.449 168.271 103.91 168.495 103.35C168.525 103.29 168.595 103.05 168.65 102.89L168.82 102.36C168.94 102.015 169.045 101.655 169.15 101.295C169.365 100.58 169.565 99.8499 169.77 99.1249C170.16 97.6599 170.525 96.1799 170.88 94.6899C171.57 91.6899 172.235 88.6599 172.835 85.6899L179.14 86.8149Z" fill="#FF8B7B"/>
<path d="M180.635 87.4C180.38 92.23 178.04 99.01 178.04 99.01L171.47 96.51L168.765 95.51C169.121 92.3122 169.881 89.1723 171.025 86.165C173.025 81.015 177.66 79.76 180.025 83.55C180.575 84.405 180.72 85.795 180.635 87.4Z" fill="#B83232"/>
<path opacity="0.2" d="M180.635 87.3999C180.38 92.2299 178.04 99.0099 178.04 99.0099L171.47 96.5099C171.861 94.8059 172.372 93.1317 173 91.4999C174.64 87.2099 178.14 85.6249 180.635 87.3999Z" fill="black"/>
<path d="M159.12 117.355L154.66 118.085L154.625 122.46C154.625 122.46 158.905 121.86 160.58 119.81L159.12 117.355Z" fill="#FF8B7B"/>
<path d="M150.53 120.62L150.625 123.495L154.625 122.46L154.655 118.085L150.53 120.62Z" fill="#FF8B7B"/>
<path d="M175.94 118.085C175.94 118.085 169.585 141.22 167.9 154.17C166.15 167.64 170.28 196.525 170.28 196.525L177.925 196.36C177.925 196.36 178.5 166.915 181 153.67C183.74 139.235 188.96 117.805 188.96 117.805L175.94 118.085Z" fill="#263238"/>
<path d="M178.865 196.705L169.875 196.885L169.215 193.9L178.75 193.875L178.865 196.705Z" fill="#B83232"/>
<path opacity="0.4" d="M178.865 196.705L169.875 196.885L169.215 193.9L178.75 193.875L178.865 196.705Z" fill="white"/>
<path d="M207.725 195.045L211.7 192.685C211.777 192.635 211.869 192.614 211.96 192.624C212.051 192.634 212.136 192.675 212.2 192.74L215.055 195.42C215.124 195.481 215.178 195.557 215.211 195.643C215.245 195.729 215.257 195.822 215.248 195.913C215.238 196.005 215.206 196.093 215.155 196.17C215.104 196.247 215.036 196.31 214.955 196.355C213.505 197.185 211.38 198.355 209.575 199.4C207.47 200.655 206.575 201.335 204.13 202.8C202.63 203.69 201.225 202.485 201.76 201.98C204.195 199.69 205.6 198.755 207.06 195.84C207.201 195.517 207.432 195.241 207.725 195.045Z" fill="#263238"/>
<path d="M206.595 196.575C206.983 196.336 207.348 196.062 207.685 195.755C207.7 195.74 207.71 195.721 207.714 195.701C207.719 195.681 207.717 195.659 207.71 195.64C207.702 195.62 207.688 195.604 207.67 195.593C207.652 195.582 207.631 195.577 207.61 195.58C207.385 195.58 205.42 195.75 205.155 196.26C205.127 196.306 205.112 196.359 205.112 196.412C205.112 196.466 205.127 196.519 205.155 196.565C205.199 196.646 205.261 196.716 205.337 196.769C205.412 196.822 205.499 196.856 205.59 196.87C205.948 196.884 206.301 196.78 206.595 196.575ZM207.32 195.805C206.61 196.405 205.99 196.725 205.635 196.67C205.573 196.661 205.515 196.637 205.464 196.602C205.412 196.566 205.37 196.519 205.34 196.465C205.329 196.448 205.324 196.428 205.324 196.407C205.324 196.387 205.329 196.367 205.34 196.35C205.5 196.08 206.525 195.885 207.32 195.805Z" fill="#B83232"/>
<path d="M207.67 195.765C207.687 195.752 207.701 195.735 207.71 195.715C207.72 195.7 207.725 195.683 207.725 195.665C207.725 195.647 207.72 195.63 207.71 195.615C207.66 195.555 206.465 194.115 205.655 194.745C205.44 194.905 205.44 195.06 205.48 195.16C205.66 195.605 207.06 195.85 207.645 195.78L207.67 195.765ZM205.81 194.875C206.335 194.57 207.095 195.27 207.405 195.59C206.76 195.59 205.76 195.35 205.65 195.09C205.65 195.09 205.62 195.015 205.755 194.915L205.81 194.875Z" fill="#B83232"/>
<path d="M183.845 117.915C183.845 117.915 183.845 140.645 184.44 153.69C185.05 167.26 202 190.61 202 190.61L208.525 186.61C208.525 186.61 197.075 164.39 197.25 150.915C197.44 136.22 198.58 117.585 198.58 117.585L183.845 117.915Z" fill="#263238"/>
<path d="M209.365 186.605L202.14 191.015L200.335 189.22L208.285 183.92L209.365 186.605Z" fill="#B83232"/>
<path opacity="0.4" d="M209.365 186.605L202.14 191.015L200.335 189.22L208.285 183.92L209.365 186.605Z" fill="white"/>
<path d="M175.415 81.5C175.415 81.5 170.69 94.39 175.94 118.09L198.58 117.59C198.66 114.115 196.115 97.21 199.12 80.765C196.6 80.3432 194.054 80.0877 191.5 80C188.292 79.8794 185.08 79.9478 181.88 80.205C179.695 80.4676 177.533 80.9006 175.415 81.5Z" fill="#B83232"/>
<path d="M190.335 69.1649C189.795 72.2699 189.31 77.9599 191.52 79.9799C191.52 79.9799 190.74 83.1549 184.99 83.2599C180.395 83.3449 181.9 80.1849 181.9 80.1849C185.335 79.2849 185.19 76.7249 184.535 74.3349L190.335 69.1649Z" fill="#FF8B7B"/>
<path opacity="0.2" d="M187.97 71.2699L184.54 74.3299C184.7 74.8857 184.81 75.4546 184.87 76.0299C186.185 75.8149 187.97 74.3249 188.08 72.9399C188.146 72.3812 188.108 71.8152 187.97 71.2699Z" fill="black"/>
<path opacity="0.2" d="M194.07 88.965L197.845 91.685C197.68 94.58 197.63 97.395 197.655 100.035C195.34 97.705 194.045 93.42 194.07 88.965Z" fill="black"/>
<path d="M190.695 78.4349C190.695 78.4349 189.61 81.0449 184.545 83.2649C185.36 83.5922 186.097 84.0859 186.71 84.7144C187.323 85.3429 187.798 86.0924 188.105 86.9149C188.105 86.9149 191.79 83.4149 192.775 79.9149L190.695 78.4349Z" fill="white"/>
<path d="M180.76 85.9699C180.76 85.9699 182.31 83.7199 184.545 83.2649C183.76 82.3049 182.95 80.1749 183.7 79.1649C183.041 79.3387 182.403 79.5817 181.795 79.8899C181.795 79.8899 178.755 81.7149 180.76 85.9699Z" fill="white"/>
<path d="M180.315 60.2749C178.25 61.1599 177.225 66.7199 179.915 67.9299C182.605 69.1399 184.225 58.6049 180.315 60.2749Z" fill="#263238"/>
<path d="M190.605 64.5C190.435 68.7 190.55 71.165 188.48 73.36C185.365 76.665 180.15 74.86 179.06 70.695C178.06 66.945 178.52 60.695 182.585 58.955C183.48 58.5632 184.46 58.4068 185.433 58.5006C186.405 58.5944 187.338 58.9353 188.141 59.491C188.945 60.0466 189.593 60.7985 190.024 61.6752C190.456 62.5519 190.655 63.5243 190.605 64.5Z" fill="#FF8B7B"/>
<path d="M184.27 65.8049C184.27 66.1449 184.105 66.4249 183.88 66.4299C183.655 66.4349 183.47 66.1599 183.465 65.8199C183.46 65.4799 183.63 65.1999 183.855 65.1949C184.08 65.1899 184.265 65.4599 184.27 65.8049Z" fill="#263238"/>
<path d="M180.41 65.885C180.41 66.225 180.245 66.505 180.02 66.51C179.795 66.515 179.61 66.245 179.605 65.9C179.6 65.555 179.77 65.28 179.995 65.275C180.22 65.27 180.405 65.545 180.41 65.885Z" fill="#263238"/>
<path d="M181.645 66.0299C181.259 67.0821 180.731 68.0764 180.075 68.9849C180.311 69.1463 180.58 69.2541 180.863 69.3007C181.145 69.3473 181.434 69.3317 181.71 69.2549L181.645 66.0299Z" fill="#FF5652"/>
<path d="M182.725 70.1749C183.184 70.1787 183.638 70.0716 184.047 69.8627C184.456 69.6538 184.809 69.3492 185.075 68.9749C185.082 68.9639 185.087 68.9515 185.089 68.9386C185.091 68.9257 185.09 68.9124 185.087 68.8998C185.084 68.8871 185.078 68.8752 185.07 68.8649C185.062 68.8546 185.052 68.8461 185.04 68.8399C185.018 68.8266 184.992 68.8222 184.966 68.8278C184.941 68.8334 184.919 68.8485 184.905 68.8699C184.653 69.2127 184.324 69.4913 183.944 69.6833C183.565 69.8752 183.145 69.9751 182.72 69.9749C182.707 69.9756 182.694 69.9788 182.682 69.9844C182.67 69.99 182.66 69.998 182.651 70.0077C182.642 70.0175 182.635 70.0289 182.631 70.0413C182.626 70.0536 182.624 70.0668 182.625 70.0799C182.626 70.1056 182.637 70.1297 182.656 70.1474C182.675 70.1651 182.699 70.175 182.725 70.1749Z" fill="#263238"/>
<path d="M185.405 64.5349C185.45 64.5335 185.494 64.5177 185.53 64.4899C185.571 64.4566 185.597 64.4085 185.603 64.3561C185.608 64.3036 185.593 64.2511 185.56 64.2099C185.368 63.9555 185.118 63.7507 184.831 63.6124C184.544 63.4741 184.228 63.4064 183.91 63.4149C183.857 63.4195 183.808 63.4451 183.774 63.4858C183.739 63.5266 183.723 63.5793 183.728 63.6324C183.732 63.6854 183.758 63.7345 183.798 63.7687C183.839 63.8029 183.892 63.8195 183.945 63.8149C184.197 63.8126 184.445 63.8692 184.671 63.9804C184.897 64.0915 185.093 64.254 185.245 64.4549C185.263 64.48 185.287 64.5004 185.315 64.5143C185.343 64.5282 185.374 64.5353 185.405 64.5349Z" fill="#263238"/>
<path d="M178.69 64.5949C178.728 64.5945 178.766 64.5835 178.799 64.5633C178.831 64.543 178.858 64.5141 178.875 64.4799C178.974 64.2456 179.127 64.0386 179.323 63.8767C179.519 63.7148 179.751 63.6026 180 63.5499C180.053 63.5413 180.1 63.5124 180.132 63.4694C180.163 63.4265 180.177 63.3728 180.17 63.3199C180.16 63.2677 180.131 63.2212 180.088 63.1897C180.046 63.1581 179.993 63.1439 179.94 63.1499C179.629 63.2167 179.338 63.3568 179.092 63.5586C178.846 63.7603 178.652 64.0179 178.525 64.3099C178.513 64.3334 178.506 64.3591 178.505 64.3853C178.503 64.4116 178.507 64.4379 178.516 64.4626C178.525 64.4874 178.539 64.5101 178.557 64.5294C178.574 64.5487 178.596 64.5642 178.62 64.5749C178.642 64.586 178.666 64.5928 178.69 64.5949Z" fill="#263238"/>
<path d="M199.845 83.75C200.79 85.11 201.62 86.44 202.475 87.81C203.33 89.18 204.12 90.56 204.905 91.96C206.497 94.7954 207.913 97.7259 209.145 100.735C209.305 101.11 209.445 101.51 209.59 101.9L209.81 102.49L209.92 102.79L210.05 103.2C210.369 104.278 210.484 105.405 210.39 106.525C210.192 108.482 209.54 110.365 208.485 112.025C207.567 113.507 206.474 114.873 205.23 116.095C204.635 116.695 204.005 117.25 203.365 117.785C202.717 118.32 202.041 118.821 201.34 119.285L199.305 116.845C199.75 116.345 200.255 115.725 200.705 115.15C201.155 114.575 201.595 113.96 202.01 113.36C202.819 112.207 203.514 110.978 204.085 109.69C204.582 108.618 204.843 107.452 204.85 106.27C204.832 105.819 204.738 105.374 204.57 104.955L204.17 104.065C204.015 103.735 203.875 103.4 203.705 103.065C202.415 100.39 200.925 97.73 199.36 95.1C197.795 92.47 196.155 89.83 194.53 87.305L199.845 83.75Z" fill="#FF8B7B"/>
<path d="M199.12 80.775C203.075 81.63 208.765 93.83 208.765 93.83L198.17 99C196.286 96.1181 194.72 93.04 193.5 89.82C191.655 84.665 194.885 79.855 199.12 80.775Z" fill="#B83232"/>
<path d="M195.355 112.15L206 143.595C206.414 144.829 206.322 146.176 205.746 147.344C205.17 148.511 204.156 149.403 202.925 149.825L131.37 174.085C130.135 174.499 128.785 174.408 127.618 173.829C126.45 173.251 125.559 172.234 125.14 171L114.5 139.565C114.295 138.969 114.21 138.339 114.25 137.71C114.307 136.733 114.654 135.795 115.246 135.016C115.839 134.237 116.649 133.652 117.575 133.335L189.145 109.075C190.072 108.763 191.07 108.734 192.014 108.993C192.957 109.251 193.801 109.784 194.44 110.525C194.849 111.001 195.16 111.553 195.355 112.15Z" fill="#B83232"/>
<path opacity="0.8" d="M195.355 112.15L206 143.595C206.414 144.829 206.322 146.176 205.746 147.344C205.17 148.511 204.156 149.403 202.925 149.825L131.37 174.085C130.135 174.499 128.785 174.408 127.618 173.829C126.45 173.251 125.559 172.234 125.14 171L114.5 139.565C114.295 138.969 114.21 138.339 114.25 137.71C114.307 136.733 114.654 135.795 115.246 135.016C115.839 134.237 116.649 133.652 117.575 133.335L189.145 109.075C190.072 108.763 191.07 108.734 192.014 108.993C192.957 109.251 193.801 109.784 194.44 110.525C194.849 111.001 195.16 111.553 195.355 112.15Z" fill="white"/>
<path opacity="0.6" d="M194.42 110.525L164.815 137C163.327 138.33 161.585 139.345 159.695 139.985C157.805 140.625 155.805 140.877 153.815 140.725L114.225 137.725C114.282 136.748 114.629 135.81 115.221 135.031C115.814 134.252 116.624 133.667 117.55 133.35L189.12 109.09C190.046 108.775 191.045 108.744 191.989 108.999C192.933 109.255 193.779 109.786 194.42 110.525Z" fill="#B83232"/>
<path d="M200.375 116.26L195.825 116.29L198.63 120.885C198.63 120.885 201.87 120.1 202.17 118.47L200.375 116.26Z" fill="#FF8B7B"/>
<path d="M192.98 118.985L195.475 122.68L198.63 120.885L195.825 116.29L192.98 118.985Z" fill="#FF8B7B"/>
<path d="M193.47 61.1349C194.47 63.8749 191.445 70.2199 189.685 70.0999C187.925 69.9799 187.445 63.3849 188.445 61.7449C187.495 62.1849 178.445 62.1999 178.49 61.2449C178.72 57.7749 184.875 56.5149 191.625 58.2449C193.38 58.1599 194.035 58.6399 193.47 61.1349Z" fill="#263238"/>
<path d="M192.595 69.075C192.327 69.5247 191.973 69.9168 191.552 70.2284C191.132 70.54 190.653 70.7649 190.145 70.89C188.785 71.22 188.145 69.995 188.575 68.735C188.95 67.6 190.11 66.065 191.46 66.295C192.81 66.525 193.255 67.96 192.595 69.075Z" fill="#FF8B7B"/>
<path d="M173.095 59.4999L193.865 61.8999C193.97 61.9112 194.075 61.8808 194.157 61.8152C194.239 61.7497 194.292 61.6544 194.305 61.5499C194.316 61.446 194.287 61.3418 194.222 61.2596C194.158 61.1774 194.064 61.1236 193.96 61.1099L173.185 58.7149C173.081 58.7035 172.977 58.7333 172.895 58.7978C172.813 58.8622 172.759 58.9563 172.745 59.0599C172.734 59.1645 172.764 59.2694 172.83 59.3518C172.895 59.4341 172.991 59.4873 173.095 59.4999Z" fill="#B83232"/>
<path d="M194.305 61.5299L194.665 58.4299C194.661 58.091 194.531 57.7657 194.3 57.5178C194.068 57.2699 193.753 57.1173 193.415 57.0899L180.66 54.6799C179.715 54.4999 178.845 55.0299 178.85 55.7799V59.7499L194.305 61.5299Z" fill="#B83232"/>
<path d="M180.04 58.835L185.44 59.46L185.625 57.885L180.045 57.245L180.04 58.835Z" fill="white"/>
</svg>
