<svg width="180" height="180" viewBox="0 0 180 180" fill="none" xmlns="http://www.w3.org/2000/svg">
<path opacity="0.7" d="M24.4548 60.1525C24.4548 60.1525 14.418 86.0725 28.5228 112.172C42.6276 138.272 71.6796 152.06 94.932 163.85C118.184 175.64 142.33 169.898 153.803 150.588C165.276 131.278 149.54 117.493 149.519 89.9569C149.497 62.4205 153.641 55.1305 138.719 31.8673C123.797 8.60405 87.2172 3.45246 59.5548 20.7073C31.8924 37.9621 24.4548 60.1525 24.4548 60.1525Z" fill="white"/>
<path d="M39.6 40.4892C44.4456 34.7004 50.994 30.24 58.7988 30.3156C72.1188 30.4812 79.3188 42.2712 86.958 51.3648C90.918 56.0808 95.4144 60.6312 101.297 62.8488C110.12 66.1716 119.948 64.2312 128.545 61.146C132.397 59.7636 136.958 57.8196 141.296 58.8132C154.483 61.83 153.112 77.922 150.934 88.1136C147.992 101.88 143.212 116.518 133.524 127.08C110.329 152.384 68.5872 136.872 47.664 116.68C46.1268 115.193 44.6544 113.645 43.2684 112C39.6677 107.802 36.6201 103.159 34.2 98.1864C27.4608 84.1644 26.532 67.122 32.4 52.632C34.1621 48.2387 36.5906 44.143 39.6 40.4892Z" fill="#B83232"/>
<path opacity="0.7" d="M39.6 40.4892C44.4456 34.7004 50.994 30.24 58.7988 30.3156C72.1188 30.4812 79.3188 42.2712 86.958 51.3648C90.918 56.0808 95.4144 60.6312 101.297 62.8488C110.12 66.1716 119.948 64.2312 128.545 61.146C132.397 59.7636 136.958 57.8196 141.296 58.8132C154.483 61.83 153.112 77.922 150.934 88.1136C147.992 101.88 143.212 116.518 133.524 127.08C110.329 152.384 68.5872 136.872 47.664 116.68C46.1268 115.193 44.6544 113.645 43.2684 112C39.6677 107.802 36.6201 103.159 34.2 98.1864C27.4608 84.1644 26.532 67.122 32.4 52.632C34.1621 48.2387 36.5906 44.143 39.6 40.4892Z" fill="white"/>
<path d="M19.458 159.635H160.542" stroke="#263238" stroke-linecap="round" stroke-linejoin="round"/>
<path d="M105.109 86.6879V33.7175H108.389" stroke="#263238" stroke-linecap="round" stroke-linejoin="round"/>
<path d="M105.109 92.9916V91.5876" stroke="#263238" stroke-linecap="round" stroke-linejoin="round"/>
<path d="M116.824 33.7175H150.667V97.9307H105.109" stroke="#263238" stroke-linecap="round" stroke-linejoin="round"/>
<path d="M112.676 33.7175H115.65" stroke="#263238" stroke-linecap="round" stroke-linejoin="round"/>
<path d="M148.954 35.4275H106.823V96.2207H148.954V35.4275Z" stroke="#263238" stroke-linejoin="round"/>
<path d="M146.995 38.6819V63.9287H108.781V62.2799" stroke="#263238" stroke-linecap="round" stroke-linejoin="round"/>
<path d="M108.781 58.4206V37.2202H146.995" stroke="#263238" stroke-linecap="round" stroke-linejoin="round"/>
<path d="M108.781 61.0163V59.4143" stroke="#263238" stroke-linecap="round" stroke-linejoin="round"/>
<path d="M140.54 65.8223H148.953" stroke="#263238" stroke-linecap="round" stroke-linejoin="round"/>
<path d="M137.549 65.8223H138.74" stroke="#263238" stroke-linecap="round" stroke-linejoin="round"/>
<path d="M106.823 65.8223H136.13" stroke="#263238" stroke-linecap="round" stroke-linejoin="round"/>
<path d="M125.77 63.9288V63.0576H129.294V63.5508H127.89V63.9288" stroke="#263238" stroke-linecap="round" stroke-linejoin="round"/>
<path d="M106.895 88.5599C106.895 88.5599 107.482 89.0027 107.892 91.6811C107.892 91.6811 108.612 87.4043 109.454 87.3395C110.297 87.2747 110.138 90.1187 110.138 90.1187C110.138 90.1187 110.282 88.7183 110.952 88.7831C111.622 88.8479 110.952 91.6631 110.952 91.6631C110.952 91.6631 111.758 89.4527 112.522 89.5031C113.285 89.5535 112.018 93.5063 112.018 93.5063C112.018 93.5063 113.976 92.0879 114.768 92.7863C115.56 93.4847 114.329 95.2271 114.329 95.2271C114.329 95.2271 117.137 94.6187 117.569 96.2675" stroke="#263238" stroke-linecap="round" stroke-linejoin="round"/>
<path d="M117.572 94.68C117.572 94.68 118.796 93.8772 119.761 94.2516C119.761 94.2516 119.149 93.3192 119.761 92.7504C120.373 92.1816 121.158 94.2516 121.158 94.2516C121.158 94.2516 121.248 90.7776 122.472 90.954C123.696 91.1304 122.472 94.2516 122.472 94.2516C122.472 94.2516 124.657 92.3148 125.183 92.988C125.708 93.6612 124.823 94.68 124.823 94.68C125.218 94.5678 125.635 94.5603 126.034 94.6581C126.433 94.7559 126.8 94.9558 127.098 95.238C127.098 95.238 128.563 93.744 130.19 93.528C130.19 93.528 129.11 90.3852 129.632 89.7516C130.154 89.118 131.112 92.4948 131.112 92.4948C131.112 92.4948 131.529 90.2988 132.912 90.126C132.912 90.126 131.771 89.5068 132.109 88.5672C132.447 87.6276 134.021 88.7904 134.021 88.7904C134.021 88.7904 133.373 87.138 134.399 86.6844C135.425 86.2308 135.839 88.0668 135.839 88.0668C135.839 88.0668 136.127 86.1444 137.329 86.2668C138.531 86.3892 138.143 88.5852 138.143 88.5852C138.143 88.5852 139.277 86.8284 139.885 87.0048C141.098 87.3648 140.731 90.144 140.731 90.144C140.731 90.144 142.423 88.9668 142.862 89.5104C143.301 90.054 141.098 91.602 141.098 91.602C141.098 91.602 142.779 91.7856 143.827 92.7684" stroke="#263238" stroke-linecap="round" stroke-linejoin="round"/>
<path d="M148.953 89.2079C148.953 89.2079 148.759 87.4439 146.995 87.3503C145.231 87.2567 147.481 91.2203 147.481 91.2203C147.481 91.2203 146.023 90.0143 145.501 90.3851C144.979 90.7559 146.995 92.8007 146.995 92.8007C146.995 92.8007 146.027 91.9043 145.008 92.1815C143.989 92.4587 145.587 95.2991 145.587 95.2991C144.08 94.9972 142.516 95.1812 141.12 95.8247" stroke="#263238" stroke-linecap="round" stroke-linejoin="round"/>
<path d="M88.8086 143.874V159.541" stroke="#263238" stroke-linecap="round" stroke-linejoin="round"/>
<path d="M88.8086 138.748V142.103" stroke="#263238" stroke-linecap="round" stroke-linejoin="round"/>
<path d="M22.8564 159.635V130.439H88.8084V136.847" stroke="#263238" stroke-linecap="round" stroke-linejoin="round"/>
<path d="M32.465 133.632H26.741V156.956" stroke="#263238" stroke-linecap="round" stroke-linejoin="round"/>
<path d="M84.924 159.541V133.632H35.7876" stroke="#263238" stroke-linecap="round" stroke-linejoin="round"/>
<path d="M82.1808 127.415H80.3628" stroke="#263238" stroke-linecap="round" stroke-linejoin="round"/>
<path d="M77.7529 127.415H21.2185V130.417H90.4465V127.415H83.3401" stroke="#263238" stroke-linecap="round" stroke-linejoin="round"/>
<path d="M25.1172 108.176C25.1172 108.176 30.5172 108.605 30.762 112.601C30.762 112.601 25.272 115.128 25.1172 108.176Z" stroke="#263238" stroke-linejoin="round"/>
<path d="M35.8345 109.17C35.8345 109.17 38.8621 105.077 43.7545 107.175C43.7545 107.175 40.7665 112.122 35.8345 109.17Z" stroke="#263238" stroke-linejoin="round"/>
<path d="M43.3406 96.246C43.3406 96.246 44.2118 104.119 37.0442 101.952C37.0442 101.952 39.3194 96.1632 43.3406 96.246Z" stroke="#263238" stroke-linejoin="round"/>
<path d="M34.5385 91.8611C34.5385 91.8611 40.2085 94.9211 36.0397 99.5579C36.0397 99.5579 32.0653 96.2459 34.5385 91.8611Z" stroke="#263238" stroke-linejoin="round"/>
<path d="M27.5652 98.8991C27.5652 98.8991 33.7284 98.2799 33.7284 103.982C33.7284 103.982 27.5652 104.227 27.5652 98.8991Z" stroke="#263238" stroke-linejoin="round"/>
<path d="M32.184 115.823C32.094 113.908 32.094 111.445 33.264 108.842C35.9604 102.838 36.864 97.7796 35.4636 94.2156" stroke="#263238" stroke-linecap="round" stroke-linejoin="round"/>
<path d="M29.5886 100.44C29.5886 100.44 33.2822 101.909 34.5386 105.714" stroke="#263238" stroke-linecap="round" stroke-linejoin="round"/>
<path d="M41.4001 99.396C41.4001 99.396 39.2653 102.305 35.6401 101.992" stroke="#263238" stroke-linecap="round" stroke-linejoin="round"/>
<path d="M41.4001 108C41.4001 108 35.4853 109.703 33.1201 109.145" stroke="#263238" stroke-linecap="round" stroke-linejoin="round"/>
<path d="M26.8813 109.976C26.8813 109.976 29.5273 112.878 32.1841 112.831" stroke="#263238" stroke-linecap="round" stroke-linejoin="round"/>
<path d="M39.2148 115.823H26.3664C26.2834 115.823 26.2037 115.856 26.145 115.914C26.0862 115.973 26.0532 116.053 26.0532 116.136V117.112C26.0532 117.153 26.0613 117.193 26.0771 117.231C26.0929 117.269 26.116 117.303 26.1452 117.332C26.1743 117.361 26.2089 117.383 26.2468 117.399C26.2848 117.414 26.3255 117.422 26.3664 117.421H26.7264L27.8712 127.415H37.692L38.8368 117.421H39.2148C39.2556 117.422 39.2961 117.414 39.3339 117.399C39.3716 117.383 39.406 117.36 39.4348 117.332C39.4637 117.303 39.4865 117.268 39.5018 117.231C39.5172 117.193 39.5249 117.152 39.5244 117.112V116.136C39.5249 116.095 39.5172 116.054 39.5019 116.016C39.4866 115.978 39.4638 115.944 39.435 115.915C39.4062 115.886 39.3719 115.862 39.3341 115.847C39.2963 115.831 39.2558 115.823 39.2148 115.823Z" stroke="#263238" stroke-miterlimit="10"/>
<path d="M27.5652 117.421H35.0388" stroke="#263238" stroke-linecap="round" stroke-linejoin="round"/>
<path d="M36.4465 117.421H37.5697" stroke="#263238" stroke-linecap="round" stroke-linejoin="round"/>
<path d="M118.336 75.9924L116.896 83.8188L105.152 90.954L106.776 93.9348C106.776 93.9348 120.352 89.7948 120.683 88.8264C121.014 87.858 124.142 77.6016 124.142 77.6016L118.336 75.9924Z" fill="#263238"/>
<path d="M123.48 62.7588L122.695 72.2484L122.281 77.2272C120.017 78.3288 117.803 76.6728 117.666 76.5648C118.282 74.7576 118.998 64.5588 123.48 62.7588Z" fill="#999999" stroke="#263238" stroke-linejoin="round"/>
<path d="M122.681 72.2485L122.267 77.2273C120.002 78.3289 117.788 76.6729 117.652 76.5649C117.749 76.6081 118.94 77.1121 119.714 76.5649C119.444 76.2727 119.202 75.9543 118.994 75.6145C118.948 75.4273 119.714 75.3769 119.714 75.3769C119.714 75.3769 119.21 71.3413 120.553 69.6169C121.079 68.9617 121.9 70.3297 122.681 72.2485Z" fill="#263238"/>
<path d="M131.613 150.638L131.973 151.697C131.427 152.597 130.816 153.457 130.144 154.267C130.144 154.267 129.784 154.152 129.193 154.674C128.83 155.037 128.605 155.516 128.56 156.028C128.56 156.028 125.809 159.325 122.321 159.372C118.833 159.419 119.884 157.662 119.884 157.662L131.613 150.638Z" fill="#B83232" stroke="#263238" stroke-linejoin="round"/>
<path d="M128.333 142.247C128.333 142.247 123.653 140.522 122.738 143.971C122.738 143.971 123.574 147.769 123.073 149.846C122.573 151.924 120.053 155.891 119.898 156.643C119.592 158.119 119.822 158.22 119.822 158.22C119.822 158.22 121.655 159.278 124.117 158.144C126.58 157.01 130.842 152.129 131.508 151.124C132.174 150.12 129.42 146.16 129.42 146.16L128.333 142.247Z" fill="white"/>
<mask id="mask0_91_975" style="mask-type:luminance" maskUnits="userSpaceOnUse" x="119" y="141" width="13" height="18">
<path d="M128.333 142.247C128.333 142.247 123.653 140.522 122.738 143.971C122.738 143.971 123.574 147.769 123.073 149.846C122.573 151.924 120.053 155.891 119.898 156.643C119.592 158.119 119.822 158.22 119.822 158.22C119.822 158.22 121.655 159.278 124.117 158.144C126.58 157.01 130.842 152.129 131.508 151.124C132.174 150.12 129.42 146.16 129.42 146.16L128.333 142.247Z" fill="white"/>
</mask>
<g mask="url(#mask0_91_975)">
<path opacity="0.4" d="M128.333 142.247C128.333 142.247 123.653 140.522 122.738 143.971C122.738 143.971 123.574 147.769 123.073 149.846C122.573 151.924 120.053 155.891 119.898 156.643C119.592 158.119 119.822 158.22 119.822 158.22C119.822 158.22 121.655 159.278 124.117 158.144C126.58 157.01 130.842 152.129 131.508 151.124C132.174 150.12 129.42 146.16 129.42 146.16L128.333 142.247Z" fill="#B83232"/>
</g>
<path d="M128.333 142.247C128.333 142.247 123.653 140.522 122.738 143.971C122.738 143.971 123.574 147.769 123.073 149.846C122.573 151.924 120.053 155.891 119.898 156.643C119.592 158.119 119.822 158.22 119.822 158.22C119.822 158.22 121.655 159.278 124.117 158.144C126.58 157.01 130.842 152.129 131.508 151.124C132.174 150.12 129.42 146.16 129.42 146.16L128.333 142.247Z" stroke="#263238" stroke-linejoin="round"/>
<path d="M125.939 147.125C126.346 149.448 125.932 151.841 124.769 153.893" stroke="#263238" stroke-linecap="round" stroke-linejoin="round"/>
<path d="M124.769 154.8C124.595 155.238 124.324 155.632 123.978 155.952C123.632 156.273 123.218 156.511 122.767 156.65C121.824 156.903 120.831 156.903 119.887 156.65L121.01 154.375C122.203 154.85 123.501 154.997 124.769 154.8Z" fill="#B83232" stroke="#263238" stroke-linejoin="round"/>
<path d="M125.431 153.421C125.431 153.421 122.983 153.569 121.705 153.061" stroke="#263238" stroke-linecap="round" stroke-linejoin="round"/>
<path d="M125.885 152.071C125.885 152.071 123.595 152.431 122.317 151.711" stroke="#263238" stroke-linecap="round" stroke-linejoin="round"/>
<path d="M126.274 150.57C126.274 150.57 124.268 150.862 122.958 150.242" stroke="#263238" stroke-linecap="round" stroke-linejoin="round"/>
<path d="M126.497 148.871C126.497 148.871 124.265 149.569 123.21 148.871" stroke="#263238" stroke-linecap="round" stroke-linejoin="round"/>
<path d="M126.832 144.673L127.221 147.125C127.221 147.125 124.269 149.069 122.317 146.639V144.079C122.317 144.079 123.052 145.8 126.832 144.673Z" fill="#B83232" stroke="#263238" stroke-linejoin="round"/>
<path d="M124.269 89.6401C121.277 99.1189 111.993 114.322 112.932 118.213C113.447 120.337 116.511 132.372 118.908 137.653C119.819 139.673 121.788 141.023 121.788 141.023L123.21 144.072C126.677 145.581 127.919 142.513 127.919 142.513L127.221 139.057C129.078 135.681 128.301 135.681 125.885 118.177C125.601 116.115 130.385 109.739 130.385 109.739L132.84 125.781L133.24 138.921L134.514 142.981C134.514 142.981 134.831 146.794 134.802 147.024H140.501L141.12 142.834C141.12 142.834 143.766 140.339 143.766 137.459C143.766 134.579 143.197 119.909 143.766 115.636C144.335 111.363 142.434 91.4401 142.434 91.4401L124.269 89.6401Z" fill="#263238"/>
<path d="M85.5274 81.1942L93.4474 81.907C93.6269 81.9232 93.7926 82.01 93.9081 82.1483C94.0236 82.2867 94.0794 82.4652 94.0633 82.6447L93.5546 88.2967L84.281 87.4621L84.7897 81.8101C84.8058 81.6306 84.8926 81.4649 85.031 81.3494C85.1693 81.2339 85.3479 81.1781 85.5274 81.1942Z" fill="#B83232"/>
<mask id="mask1_91_975" style="mask-type:luminance" maskUnits="userSpaceOnUse" x="84" y="81" width="11" height="8">
<path d="M85.5274 81.1942L93.4474 81.907C93.6269 81.9232 93.7926 82.01 93.9081 82.1483C94.0236 82.2867 94.0794 82.4652 94.0633 82.6447L93.5546 88.2967L84.281 87.4621L84.7897 81.8101C84.8058 81.6306 84.8926 81.4649 85.031 81.3494C85.1693 81.2339 85.3479 81.1781 85.5274 81.1942Z" fill="white"/>
</mask>
<g mask="url(#mask1_91_975)">
<path opacity="0.3" d="M85.5274 81.1942L93.4474 81.907C93.6269 81.9232 93.7926 82.01 93.9081 82.1483C94.0236 82.2867 94.0794 82.4652 94.0633 82.6447L93.5546 88.2967L84.281 87.4621L84.7897 81.8101C84.8058 81.6306 84.8926 81.4649 85.031 81.3494C85.1693 81.2339 85.3479 81.1781 85.5274 81.1942Z" fill="black" fill-opacity="0.7"/>
<path opacity="0.3" d="M93.572 81.8091L91.3015 81.614L90.9114 86.1549L93.1819 86.3499L93.572 81.8091Z" fill="white" fill-opacity="0.7"/>
</g>
<path d="M85.5274 81.1942L93.4474 81.907C93.6269 81.9232 93.7926 82.01 93.9081 82.1483C94.0236 82.2867 94.0794 82.4652 94.0633 82.6447L93.5546 88.2967L84.281 87.4621L84.7897 81.8101C84.8058 81.6306 84.8926 81.4649 85.031 81.3494C85.1693 81.2339 85.3479 81.1781 85.5274 81.1942Z" stroke="#263238" stroke-width="1.00404" stroke-linejoin="round"/>
<path d="M99.1978 81.6944L107.089 82.3723C107.268 82.3876 107.433 82.4734 107.549 82.6107C107.664 82.7481 107.72 82.9257 107.705 83.1045L107.221 88.7358L97.9818 87.9421L98.4655 82.3108C98.4809 82.132 98.5667 81.9665 98.704 81.8509C98.8413 81.7354 99.0189 81.679 99.1978 81.6944Z" fill="#B83232"/>
<mask id="mask2_91_975" style="mask-type:luminance" maskUnits="userSpaceOnUse" x="97" y="81" width="11" height="8">
<path d="M99.1978 81.6944L107.089 82.3723C107.268 82.3876 107.433 82.4734 107.549 82.6107C107.664 82.7481 107.72 82.9257 107.705 83.1045L107.221 88.7358L97.9818 87.9421L98.4655 82.3108C98.4809 82.132 98.5667 81.9665 98.704 81.8509C98.8413 81.7354 99.0189 81.679 99.1978 81.6944Z" fill="white"/>
</mask>
<g mask="url(#mask2_91_975)">
<path opacity="0.3" d="M99.1978 81.6944L107.089 82.3723C107.268 82.3876 107.433 82.4734 107.549 82.6107C107.664 82.7481 107.72 82.9257 107.705 83.1045L107.221 88.7358L97.9818 87.9421L98.4655 82.3108C98.4809 82.132 98.5667 81.9665 98.704 81.8509C98.8413 81.7354 99.0189 81.679 99.1978 81.6944Z" fill="black" fill-opacity="0.7"/>
<path opacity="0.3" d="M107.046 82.9685L105.676 82.8508L105.285 87.3917L106.656 87.5094L107.046 82.9685Z" fill="white" fill-opacity="0.7"/>
</g>
<path d="M99.1978 81.6944L107.089 82.3723C107.268 82.3876 107.433 82.4734 107.549 82.6107C107.664 82.7481 107.72 82.9257 107.705 83.1045L107.221 88.7358L97.9818 87.9421L98.4655 82.3108C98.4809 82.132 98.5667 81.9665 98.704 81.8509C98.8413 81.7354 99.0189 81.679 99.1978 81.6944Z" stroke="#263238" stroke-linejoin="round"/>
<path d="M96.3315 81.4461L104.222 82.124C104.401 82.1394 104.567 82.2251 104.682 82.3625C104.798 82.4998 104.854 82.6774 104.839 82.8562L104.355 88.4875L95.1155 87.6938L95.5993 82.0625C95.6147 81.8837 95.7004 81.7182 95.8378 81.6027C95.9751 81.4871 96.1527 81.4307 96.3315 81.4461Z" fill="#B83232" stroke="#263238" stroke-linejoin="round"/>
<path d="M109.958 82.6192L117.849 83.2971C118.028 83.3124 118.193 83.3982 118.309 83.5356C118.425 83.6729 118.481 83.8505 118.466 84.0293L117.982 89.657L108.743 88.8633L109.226 83.232C109.243 83.0539 109.329 82.8894 109.466 82.7746C109.603 82.6598 109.78 82.6039 109.958 82.6192Z" fill="#B83232" stroke="#263238" stroke-linejoin="round"/>
<path opacity="0.3" d="M104.332 82.7336L102.062 82.5386L101.672 87.0795L103.942 87.2745L104.332 82.7336Z" fill="white" fill-opacity="0.7"/>
<path opacity="0.3" d="M117.81 83.8904L115.539 83.6953L115.149 88.2362L117.42 88.4312L117.81 83.8904Z" fill="white" fill-opacity="0.7"/>
<path d="M122.108 88.7005L119.88 114.595L78.1597 110.995L80.3881 85.1041C80.4062 84.8898 80.4664 84.6812 80.5653 84.4902C80.6642 84.2993 80.7998 84.1297 80.9643 83.9913C81.1289 83.8528 81.3191 83.7482 81.5242 83.6834C81.7292 83.6186 81.945 83.5949 82.1593 83.6137L120.614 86.9185C120.83 86.9361 121.04 86.9963 121.232 87.0957C121.424 87.1951 121.595 87.3316 121.734 87.4974C121.873 87.6631 121.977 87.8548 122.042 88.0613C122.106 88.2679 122.129 88.4851 122.108 88.7005Z" fill="#B83232"/>
<mask id="mask3_91_975" style="mask-type:luminance" maskUnits="userSpaceOnUse" x="78" y="83" width="45" height="32">
<path d="M122.108 88.7005L119.88 114.595L78.1597 110.995L80.3881 85.1041C80.4062 84.8898 80.4664 84.6812 80.5653 84.4902C80.6642 84.2993 80.7998 84.1297 80.9643 83.9913C81.1289 83.8528 81.3191 83.7482 81.5242 83.6834C81.7292 83.6186 81.945 83.5949 82.1593 83.6137L120.614 86.9185C120.83 86.9361 121.04 86.9963 121.232 87.0957C121.424 87.1951 121.595 87.3316 121.734 87.4974C121.873 87.6631 121.977 87.8548 122.042 88.0613C122.106 88.2679 122.129 88.4851 122.108 88.7005Z" fill="white"/>
</mask>
<g mask="url(#mask3_91_975)">
<path opacity="0.3" d="M122.108 88.7005L119.88 114.595L78.1597 110.995L80.3881 85.1041C80.4062 84.8898 80.4664 84.6812 80.5653 84.4902C80.6642 84.2993 80.7998 84.1297 80.9643 83.9913C81.1289 83.8528 81.3191 83.7482 81.5242 83.6834C81.7292 83.6186 81.945 83.5949 82.1593 83.6137L120.614 86.9185C120.83 86.9361 121.04 86.9963 121.232 87.0957C121.424 87.1951 121.595 87.3316 121.734 87.4974C121.873 87.6631 121.977 87.8548 122.042 88.0613C122.106 88.2679 122.129 88.4851 122.108 88.7005Z" fill="black" fill-opacity="0.7"/>
</g>
<path d="M122.108 88.7005L119.88 114.595L78.1597 110.995L80.3881 85.1041C80.4062 84.8898 80.4664 84.6812 80.5653 84.4902C80.6642 84.2993 80.7998 84.1297 80.9643 83.9913C81.1289 83.8528 81.3191 83.7482 81.5242 83.6834C81.7292 83.6186 81.945 83.5949 82.1593 83.6137L120.614 86.9185C120.83 86.9361 121.04 86.9963 121.232 87.0957C121.424 87.1951 121.595 87.3316 121.734 87.4974C121.873 87.6631 121.977 87.8548 122.042 88.0613C122.106 88.2679 122.129 88.4851 122.108 88.7005Z" stroke="#263238" stroke-linejoin="round"/>
<path d="M122.109 88.7005L119.88 114.595L88.9202 111.931L91.1522 86.0401C91.1703 85.8258 91.2305 85.6172 91.3294 85.4263C91.4283 85.2353 91.5639 85.0657 91.7284 84.9273C91.893 84.7888 92.0832 84.6842 92.2883 84.6194C92.4933 84.5546 92.7091 84.5309 92.9234 84.5497L120.618 86.9293C120.832 86.9474 121.041 87.0077 121.232 87.1065C121.423 87.2054 121.593 87.341 121.731 87.5056C121.869 87.6701 121.974 87.8604 122.039 88.0654C122.104 88.2705 122.127 88.4863 122.109 88.7005Z" fill="#B83232" stroke="#263238" stroke-linejoin="round"/>
<path opacity="0.3" d="M119.934 89.4419L93.4704 87.1667C93.294 87.1511 93.1308 87.067 93.0157 86.9324C92.9006 86.7978 92.8428 86.6234 92.8548 86.4467C92.8704 86.2703 92.9546 86.1071 93.0892 85.992C93.2238 85.8769 93.3981 85.8192 93.5748 85.8311L120.038 88.1063C120.215 88.122 120.378 88.2061 120.493 88.3407C120.608 88.4753 120.666 88.6497 120.654 88.8263C120.638 89.0028 120.554 89.166 120.42 89.2811C120.285 89.3962 120.111 89.4539 119.934 89.4419Z" fill="white" fill-opacity="0.7"/>
<path d="M140.688 147.172C140.688 147.172 138.694 145.75 134.568 146.034C134.568 146.034 134.266 150.984 133.704 152.424C133.142 153.864 130.183 156.359 129.632 156.787C129.082 157.216 129.082 158.71 129.082 158.71H141.617C141.456 156.567 141.122 154.441 140.62 152.352L140.688 147.172Z" fill="white"/>
<mask id="mask4_91_975" style="mask-type:luminance" maskUnits="userSpaceOnUse" x="129" y="145" width="13" height="14">
<path d="M140.688 147.172C140.688 147.172 138.694 145.75 134.568 146.034C134.568 146.034 134.266 150.984 133.704 152.424C133.142 153.864 130.183 156.359 129.632 156.787C129.082 157.216 129.082 158.71 129.082 158.71H141.617C141.456 156.567 141.122 154.441 140.62 152.352L140.688 147.172Z" fill="white"/>
</mask>
<g mask="url(#mask4_91_975)">
<path opacity="0.4" d="M140.688 147.172C140.688 147.172 138.694 145.75 134.568 146.034C134.568 146.034 134.266 150.984 133.704 152.424C133.142 153.864 130.183 156.359 129.632 156.787C129.082 157.216 129.082 158.71 129.082 158.71H141.617C141.456 156.567 141.122 154.441 140.62 152.352L140.688 147.172Z" fill="#B83232"/>
</g>
<path d="M140.688 147.172C140.688 147.172 138.694 145.75 134.568 146.034C134.568 146.034 134.266 150.984 133.704 152.424C133.142 153.864 130.183 156.359 129.632 156.787C129.082 157.216 129.082 158.71 129.082 158.71H141.617C141.456 156.567 141.122 154.441 140.62 152.352L140.688 147.172Z" stroke="#263238" stroke-linejoin="round"/>
<path d="M138.1 147.812C138.1 147.812 137.804 152.37 137.095 153.572C136.716 154.233 136.249 154.839 135.706 155.372" stroke="#263238" stroke-linecap="round" stroke-linejoin="round"/>
<path d="M135.36 156.002C135.36 156.002 134.73 156.787 134.032 156.892C133.333 156.996 129.643 156.787 129.643 156.787L131.148 155.484C131.148 155.484 134.208 154.969 135.36 156.002Z" fill="#B83232" stroke="#263238" stroke-linejoin="round"/>
<path d="M136.663 154.933C136.663 154.933 133.992 153.4 132.088 154.573" stroke="#263238" stroke-linecap="round" stroke-linejoin="round"/>
<path d="M137.308 153.893C137.308 153.893 135.443 152.435 133.243 153.234" stroke="#263238" stroke-linecap="round" stroke-linejoin="round"/>
<path d="M138.1 152.305C138.1 152.305 136.091 150.743 133.974 151.736" stroke="#263238" stroke-linecap="round" stroke-linejoin="round"/>
<path d="M138.373 150.322C138.373 150.322 135.936 149.011 134.165 150.005" stroke="#263238" stroke-linecap="round" stroke-linejoin="round"/>
<path d="M141.613 158.71V159.635H140.173C140.173 159.635 138.939 158.915 137.765 159.635H131.004C130.29 159.633 129.584 159.474 128.938 159.171L129.078 158.71H141.613Z" fill="#B83232" stroke="#263238" stroke-linejoin="round"/>
<path d="M139.817 146.88L139.496 148.9C139.496 148.9 135.734 147.679 133.657 148.471V145.987C133.657 145.987 137.52 144.634 139.817 146.88Z" fill="#B83232" stroke="#263238" stroke-linejoin="round"/>
<path d="M143.885 96.5628C143.885 96.5628 135.889 98.1288 128.045 95.5872C126.259 95.0181 124.55 94.2296 122.958 93.24C122.958 93.24 122.98 92.736 122.994 91.9116C123.059 88.6932 123.041 80.5968 121.345 78.5916C120.265 77.328 119.419 69.516 121.504 65.5668L127.879 60.4404C136.706 62.1648 138.571 64.5012 140.029 69.5412C140.299 70.4628 140.551 71.4744 140.832 72.5904C141.138 73.8072 141.426 75.294 141.7 76.9104C143.024 84.96 143.885 96.5628 143.885 96.5628Z" fill="#999999"/>
<mask id="mask5_91_975" style="mask-type:luminance" maskUnits="userSpaceOnUse" x="120" y="60" width="24" height="38">
<path d="M143.885 96.5628C143.885 96.5628 135.889 98.1288 128.045 95.5872C126.259 95.0181 124.55 94.2296 122.958 93.24C122.958 93.24 122.98 92.736 122.994 91.9116C123.059 88.6932 123.041 80.5968 121.345 78.5916C120.265 77.328 119.419 69.516 121.504 65.5668L127.879 60.4404C136.706 62.1648 138.571 64.5012 140.029 69.5412C140.299 70.4628 140.551 71.4744 140.832 72.5904C141.138 73.8072 141.426 75.294 141.7 76.9104C143.024 84.96 143.885 96.5628 143.885 96.5628Z" fill="white"/>
</mask>
<g mask="url(#mask5_91_975)">
<path opacity="0.2" d="M141.7 76.9105L138.1 92.9917C138.1 92.9917 132.898 94.4317 128.048 95.5873C126.261 95.0184 124.551 94.23 122.958 93.2401C122.958 93.2401 122.98 92.7361 122.994 91.9117C127.35 89.6833 133.708 86.4073 133.657 86.2525C133.574 86.0113 133.657 77.6125 133.657 77.6125C133.657 77.6125 139.417 76.2769 140.029 69.5305C140.299 70.4521 140.551 71.4637 140.832 72.5797C141.138 73.8001 141.426 75.2761 141.7 76.9105Z" fill="black"/>
</g>
<path d="M143.885 96.5628C143.885 96.5628 135.889 98.1288 128.045 95.5872C126.259 95.0181 124.55 94.2296 122.958 93.24C122.958 93.24 122.98 92.736 122.994 91.9116C123.059 88.6932 123.041 80.5968 121.345 78.5916C120.265 77.328 119.419 69.516 121.504 65.5668L127.879 60.4404C136.706 62.1648 138.571 64.5012 140.029 69.5412C140.299 70.4628 140.551 71.4744 140.832 72.5904C141.138 73.8072 141.426 75.294 141.7 76.9104C143.024 84.96 143.885 96.5628 143.885 96.5628Z" stroke="#263238" stroke-linejoin="round"/>
<path d="M128.16 53.7119C128.16 53.7119 125.345 57.7439 129.089 60.8903C129.089 60.8903 124.546 65.9879 123.052 65.2859C122.422 64.9907 123.052 63.1511 123.052 63.1511L120.417 58.2767L128.16 53.7119Z" fill="white" stroke="#263238" stroke-linejoin="round"/>
<path d="M127.242 55.8C128.121 51.9588 127.699 46.2384 122.317 46.746C118.544 47.106 115.855 49.194 116.917 54.2556C117.36 56.3904 117.724 59.4144 119.682 62.1432C120.226 62.8992 125.914 60.2244 125.568 58.0608" fill="white"/>
<path d="M127.242 55.8C128.121 51.9588 127.699 46.2384 122.317 46.746C118.544 47.106 115.855 49.194 116.917 54.2556C117.36 56.3904 117.724 59.4144 119.682 62.1432C120.226 62.8992 125.914 60.2244 125.568 58.0608" stroke="#263238" stroke-linecap="round" stroke-linejoin="round"/>
<path d="M119.542 53.3987C119.921 53.2518 120.33 53.1957 120.735 53.2351C121.14 53.2745 121.53 53.4082 121.875 53.6255" stroke="#263238" stroke-linecap="round" stroke-linejoin="round"/>
<path d="M116.834 53.8703C116.904 53.7229 117.024 53.6054 117.172 53.5393C117.321 53.4732 117.489 53.4629 117.644 53.5103" stroke="#263238" stroke-linecap="round" stroke-linejoin="round"/>
<path d="M118.181 54.6697C118.181 54.6697 117.072 56.6893 117.068 56.9773C117.065 57.2653 118.433 57.3625 118.433 57.3625" fill="white"/>
<path d="M118.181 54.6697C118.181 54.6697 117.072 56.6893 117.068 56.9773C117.065 57.2653 118.433 57.3625 118.433 57.3625" stroke="#263238" stroke-linecap="round" stroke-linejoin="round"/>
<path d="M120.564 55.08C120.564 55.2996 120.467 55.4796 120.33 55.4868C120.193 55.494 120.078 55.314 120.071 55.0944C120.064 54.8748 120.168 54.6948 120.305 54.6912C120.442 54.6876 120.557 54.8676 120.564 55.08Z" fill="#263238"/>
<path d="M118.998 58.8313C118.998 58.8313 121.126 58.4317 121.518 57.6829" stroke="#263238" stroke-linecap="round" stroke-linejoin="round"/>
<path d="M116.82 50.76L118.476 50.2776C118.476 50.2776 120.798 49.1976 121.291 49.3488C121.784 49.5 122.785 51.0372 122.753 51.9156C122.753 51.9156 124.315 53.2908 124.513 55.2852L124.988 55.0692C124.988 55.0692 124.963 53.2692 125.986 53.316C127.008 53.3628 127.469 54.5868 127.4 54.972C127.332 55.3572 126.212 56.9556 126.212 56.9556C126.212 56.9556 128.776 56.574 128.858 51.5556C128.941 46.5372 123.44 45.72 120.766 45.9252C119.411 46.055 118.051 46.1055 116.69 46.0764L116.842 47.5164L115.762 47.8008L116.575 48.798L115.682 49.2048L116.82 50.76Z" fill="#263238"/>
<path d="M126.094 105.48C126.094 105.48 132.61 107.204 134.374 112.057" stroke="white" stroke-linecap="round" stroke-linejoin="round"/>
<path d="M129.078 108.09C129.078 108.09 125.557 113.954 120.168 117" stroke="white" stroke-linecap="round" stroke-linejoin="round"/>
<path d="M124.128 141.07C124.128 141.07 126.13 140.62 126.677 139.842" stroke="white" stroke-linecap="round" stroke-linejoin="round"/>
<path d="M135.274 141.815C135.274 141.815 137.232 140.8 139.183 141.815" stroke="white" stroke-linecap="round" stroke-linejoin="round"/>
<path d="M141.613 114.512C141.613 114.512 138.327 123.026 136.663 123.815" stroke="white" stroke-linecap="round" stroke-linejoin="round"/>
<path d="M127.22 101.178C127.31 102.103 131.18 106.391 134.374 108.09" stroke="white" stroke-linecap="round" stroke-linejoin="round"/>
<path d="M130.522 97.5601C130.988 98.708 131.084 99.9725 130.799 101.178C130.488 102.219 130.488 103.327 130.799 104.368" stroke="white" stroke-linecap="round" stroke-linejoin="round"/>
<path d="M123.48 79.8552C123.48 79.8552 129.539 87.696 136.051 90.27" stroke="#263238" stroke-linecap="round" stroke-linejoin="round"/>
<path d="M129.751 67.1797C129.751 67.1797 129.73 72.5113 133.574 74.9161" stroke="#263238" stroke-linecap="round" stroke-linejoin="round"/>
<path d="M131.915 74.9592C131.101 75.7584 131.987 85.788 131.987 85.788C131.987 85.788 127.26 87.6384 125.78 88.83C124.301 90.0216 117.292 92.7576 117.292 92.7576C117.292 92.7576 116.212 96.4368 117.558 96.5628C118.904 96.6888 132.847 91.9368 136.037 90.27C136.037 90.27 138.114 78.03 138.1 74.916" fill="white"/>
<path d="M131.915 74.9592C131.101 75.7584 131.987 85.788 131.987 85.788C131.987 85.788 127.26 87.6384 125.78 88.83C124.301 90.0216 117.292 92.7576 117.292 92.7576C117.292 92.7576 116.212 96.4368 117.558 96.5628C118.904 96.6888 132.847 91.9368 136.037 90.27C136.037 90.27 138.114 78.03 138.1 74.916" stroke="#263238" stroke-linecap="round" stroke-linejoin="round"/>
<path d="M117.846 92.5379C117.198 92.4155 116.046 91.9907 115.441 92.1311C114.836 92.2715 113.731 92.9375 112.594 93.2111C111.456 93.4847 111.928 93.9311 112.594 94.0643C113.081 94.1455 113.579 94.1455 114.066 94.0643L113.141 94.9679C112.611 95.2547 112.064 95.5084 111.503 95.7275C111.168 95.7275 109.984 96.0479 110.063 96.5519C110.142 97.0559 110.822 96.9983 111.582 97.0271C111.582 97.0271 110.372 97.2683 110.502 97.9559C110.581 98.4275 111.942 98.0027 112.637 98.0027C112.637 98.0027 112.068 98.6219 112.493 98.8127C112.918 99.0035 113.861 98.5283 113.861 98.5283C113.861 98.5283 113.825 99.0395 114.25 99.0899C114.674 99.1403 115.744 98.7299 116.471 98.2907C117.187 97.8292 117.872 97.3218 118.523 96.7715C118.798 96.5199 119.113 96.3155 119.455 96.1667" fill="white"/>
<path d="M117.846 92.5379C117.198 92.4155 116.046 91.9907 115.441 92.1311C114.836 92.2715 113.731 92.9375 112.594 93.2111C111.456 93.4847 111.928 93.9311 112.594 94.0643C113.081 94.1455 113.579 94.1455 114.066 94.0643L113.141 94.9679C112.611 95.2547 112.064 95.5084 111.503 95.7275C111.168 95.7275 109.984 96.0479 110.063 96.5519C110.142 97.0559 110.822 96.9983 111.582 97.0271C111.582 97.0271 110.372 97.2683 110.502 97.9559C110.581 98.4275 111.942 98.0027 112.637 98.0027C112.637 98.0027 112.068 98.6219 112.493 98.8127C112.918 99.0035 113.861 98.5283 113.861 98.5283C113.861 98.5283 113.825 99.0395 114.25 99.0899C114.674 99.1403 115.744 98.7299 116.471 98.2907C117.187 97.8292 117.872 97.3218 118.523 96.7715C118.798 96.5199 119.113 96.3155 119.455 96.1667" stroke="#263238" stroke-linecap="round" stroke-linejoin="round"/>
<path d="M111.6 97.0415C111.935 97.0235 112.268 96.985 112.597 96.9263C112.882 96.8543 113.166 96.7607 113.166 96.7607" stroke="#263238" stroke-linecap="round" stroke-linejoin="round"/>
<path d="M112.64 98.0173C113.075 97.9562 113.495 97.812 113.875 97.5925" stroke="#263238" stroke-linecap="round" stroke-linejoin="round"/>
<path d="M113.865 98.5428C114.186 98.5023 114.494 98.3877 114.765 98.208" stroke="#263238" stroke-linecap="round" stroke-linejoin="round"/>
<path d="M113.256 95.2417C113.256 95.2417 112.997 95.8357 113.256 96.1669C113.515 96.4981 113.828 96.5269 113.875 96.8869C113.922 97.2469 114.541 97.2469 114.764 97.4809C114.988 97.7149 115.157 98.1649 115.87 98.2009" stroke="#263238" stroke-linecap="round" stroke-linejoin="round"/>
<path d="M131.613 64.5588C129.161 70.1064 131.613 77.8032 131.613 77.8032C131.613 77.8032 137.545 79.8192 138.093 78.9516C138.64 78.084 139.641 73.8288 139.81 71.8632" fill="#999999"/>
<path d="M131.613 64.5588C129.161 70.1064 131.613 77.8032 131.613 77.8032C131.613 77.8032 137.545 79.8192 138.093 78.9516C138.64 78.084 139.641 73.8288 139.81 71.8632" stroke="#263238" stroke-linecap="round" stroke-linejoin="round"/>
<path d="M138.1 72.4788C138.1 72.4788 135.58 75.9456 133.574 75.9924" stroke="#263238" stroke-linecap="round" stroke-linejoin="round"/>
<path d="M48.0276 159.635C48.0276 159.635 47.412 157.284 48.132 156.413C49.4208 154.85 47.9736 153.533 49.2696 152.996L49.8132 153.626C49.9176 152.989 49.6152 151.042 52.02 150.79C54.9288 150.484 54.9828 152.59 55.1412 153.31L55.0908 152.334C56.3328 152.334 55.6884 153.572 57.5676 155.596C58.0602 156.142 58.4353 156.784 58.6694 157.481C58.9035 158.178 58.9916 158.916 58.9284 159.649L48.0276 159.635Z" fill="#263238"/>
<path d="M70.2002 159.635C69.0302 159.113 70.103 154.699 70.103 154.699C70.103 154.699 68.5298 153.644 70.103 152.539C70.7115 153.055 71.4492 153.394 72.2366 153.521C73.0239 153.648 73.831 153.558 74.5706 153.259C74.5706 153.259 74.8766 150.307 76.7306 150.685C76.7306 150.685 77.2058 152.557 78.2894 153.626C81.2234 156.506 85.0142 156.866 85.6478 158.249C85.8386 158.666 85.6082 159.62 85.6082 159.62L70.2002 159.635Z" fill="#263238"/>
<path d="M65.1996 89.2475L66.6396 92.3004C66.6396 92.3004 72.594 104.605 76.2408 118.696C76.3272 119.03 78.2136 125.705 76.7016 142.326L77.5656 145.242L76.6224 150.059C76.6224 150.059 78.0408 152.107 77.9904 152.777C77.9904 152.777 74.4912 153.428 73.3104 154.055C72.4032 154.544 69.678 157.234 69.678 157.234C68.904 157.075 68.8356 153.95 68.8356 153.95C68.8356 153.95 67.2192 126.205 66.7548 125.01C66.2904 123.815 63.4536 118.66 59.0256 106.862C59.0256 106.862 58.9248 123.34 57.744 127.508C56.6892 131.216 57.9384 141.595 57.9384 141.595L57.2184 153.148C57.2184 153.148 59.7096 155.736 57.69 156.431C57.69 156.431 56.34 153.835 52.4952 153.245C50.5404 152.942 48.1068 156.413 48.1068 156.413C47.25 156.139 48.4668 151.78 48.4668 151.78C45.7416 131.216 47.7468 134.939 47.2068 124.888C46.8468 118.436 45.0288 90.8387 47.1744 88.5959L65.1996 89.2475Z" fill="#BFBFBF"/>
<mask id="mask6_91_975" style="mask-type:luminance" maskUnits="userSpaceOnUse" x="46" y="88" width="32" height="70">
<path d="M65.1996 89.2475L66.6396 92.3004C66.6396 92.3004 72.594 104.605 76.2408 118.696C76.3272 119.03 78.2136 125.705 76.7016 142.326L77.5656 145.242L76.6224 150.059C76.6224 150.059 78.0408 152.107 77.9904 152.777C77.9904 152.777 74.4912 153.428 73.3104 154.055C72.4032 154.544 69.678 157.234 69.678 157.234C68.904 157.075 68.8356 153.95 68.8356 153.95C68.8356 153.95 67.2192 126.205 66.7548 125.01C66.2904 123.815 63.4536 118.66 59.0256 106.862C59.0256 106.862 58.9248 123.34 57.744 127.508C56.6892 131.216 57.9384 141.595 57.9384 141.595L57.2184 153.148C57.2184 153.148 59.7096 155.736 57.69 156.431C57.69 156.431 56.34 153.835 52.4952 153.245C50.5404 152.942 48.1068 156.413 48.1068 156.413C47.25 156.139 48.4668 151.78 48.4668 151.78C45.7416 131.216 47.7468 134.939 47.2068 124.888C46.8468 118.436 45.0288 90.8387 47.1744 88.5959L65.1996 89.2475Z" fill="white"/>
</mask>
<g mask="url(#mask6_91_975)">
<path opacity="0.2" d="M46.1736 98.7515C55.8 99.5075 64.134 96.3575 67.752 94.7123C67.0644 93.1715 66.6432 92.3004 66.6432 92.3004L65.2032 89.2511L47.2032 88.5959C46.44 89.4059 46.17 93.5207 46.1736 98.7515Z" fill="black"/>
<path opacity="0.2" d="M59.1228 107.075C63.504 118.721 66.3228 123.818 66.7764 125.006C67.0392 125.698 67.6836 135.119 68.1876 143.024C68.7636 135.824 69.3576 128.239 69.408 126.752C69.516 123.786 67.374 119.722 67.0536 118.67C66.7332 117.619 67.4568 116.482 67.4568 116.482L63.6048 111.622C63.7344 109.973 61.6932 102.776 61.6932 102.776C60.48 103.925 59.4 106.369 59.1228 107.075Z" fill="black"/>
</g>
<path d="M65.1996 89.2475L66.6396 92.3004C66.6396 92.3004 72.594 104.605 76.2408 118.696C76.3272 119.03 78.2136 125.705 76.7016 142.326L77.5656 145.242L76.6224 150.059C76.6224 150.059 78.0408 152.107 77.9904 152.777C77.9904 152.777 74.4912 153.428 73.3104 154.055C72.4032 154.544 69.678 157.234 69.678 157.234C68.904 157.075 68.8356 153.95 68.8356 153.95C68.8356 153.95 67.2192 126.205 66.7548 125.01C66.2904 123.815 63.4536 118.66 59.0256 106.862C59.0256 106.862 58.9248 123.34 57.744 127.508C56.6892 131.216 57.9384 141.595 57.9384 141.595L57.2184 153.148C57.2184 153.148 59.7096 155.736 57.69 156.431C57.69 156.431 56.34 153.835 52.4952 153.245C50.5404 152.942 48.1068 156.413 48.1068 156.413C47.25 156.139 48.4668 151.78 48.4668 151.78C45.7416 131.216 47.7468 134.939 47.2068 124.888C46.8468 118.436 45.0288 90.8387 47.1744 88.5959L65.1996 89.2475Z" stroke="#263238" stroke-linejoin="round"/>
<path d="M59.04 106.862C59.04 106.862 61.2396 102.618 63.1152 101.434" stroke="#263238" stroke-linecap="round" stroke-linejoin="round"/>
<path d="M63.9434 100.058C63.9434 100.058 57.2618 102.092 54.9434 102.485" stroke="#263238" stroke-linecap="round" stroke-linejoin="round"/>
<path d="M60.5233 93.24C60.8113 98.802 62.7733 99.7488 60.8833 100.962C60.8833 100.962 60.9373 103.565 59.9941 105.214" stroke="#263238" stroke-linecap="round" stroke-linejoin="round"/>
<path d="M48.8161 91.1125C48.8161 91.1125 49.6045 99.6625 46.9729 101.272" stroke="#263238" stroke-linecap="round" stroke-linejoin="round"/>
<path d="M46.9728 93.8701C46.9728 93.8701 46.7748 99.5617 46.9728 104.148C46.9728 104.148 47.6316 123.534 48.2904 125.968C48.9492 128.401 47.2752 132.088 47.4192 142.607" stroke="#263238" stroke-linecap="round" stroke-linejoin="round"/>
<path d="M53.28 150.84C52.657 150.705 52.0063 150.791 51.4404 151.085" stroke="#263238" stroke-linecap="round" stroke-linejoin="round"/>
<path d="M57.24 153.148C56.4144 152.344 55.4574 151.688 54.4104 151.207" stroke="#263238" stroke-linecap="round" stroke-linejoin="round"/>
<path d="M56.1601 108.205C54.6841 109.861 52.3441 112.983 49.9465 113.245" stroke="#263238" stroke-linecap="round" stroke-linejoin="round"/>
<path d="M58.4173 105.512C57.9637 106.085 57.4957 106.646 57.0205 107.204" stroke="#263238" stroke-linecap="round" stroke-linejoin="round"/>
<path d="M56.3149 124.888C56.3149 124.888 52.9597 129.456 51.1201 129.719" stroke="#263238" stroke-linecap="round" stroke-linejoin="round"/>
<path d="M60.2605 106.038C60.2605 106.038 66.2365 122.681 68.3137 124.322C68.3137 124.322 68.5477 136.562 68.6161 140.836C68.6845 145.109 69.6673 150.79 69.6673 150.79" stroke="#263238" stroke-linecap="round" stroke-linejoin="round"/>
<path d="M76.0465 150.667C76.0465 150.667 73.7461 151.463 72.6265 151.97C71.939 152.306 71.4003 152.884 71.1145 153.594" stroke="#263238" stroke-linecap="round" stroke-linejoin="round"/>
<path d="M70.2253 118.321C67.0177 116.309 62.7877 113.792 61.0813 110.246" stroke="#263238" stroke-linecap="round" stroke-linejoin="round"/>
<path d="M73.0224 119.981C72.414 119.646 71.8164 119.297 71.2224 118.937" stroke="#263238" stroke-linecap="round" stroke-linejoin="round"/>
<path d="M62.9137 95.4901C61.1893 95.4649 59.3137 95.2381 57.8269 94.2625" stroke="#263238" stroke-linecap="round" stroke-linejoin="round"/>
<path d="M65.6533 95.3281C65.1601 95.3965 64.6633 95.4397 64.1665 95.4649" stroke="#263238" stroke-linecap="round" stroke-linejoin="round"/>
<path d="M68.8537 57.1104C67.5361 55.116 60.8221 54.6084 56.5129 54.6084C52.2037 54.6084 46.9729 53.8884 44.6113 58.7484C42.8113 62.46 46.9585 82.0872 46.9585 82.0872L45.9433 90.5616C53.7481 93.0096 67.1185 92.4696 67.1185 92.4696L65.3185 84.8088C65.3185 84.8088 70.1713 59.1012 68.8537 57.1104Z" fill="#263238"/>
<path d="M53.9533 49.6799C53.9533 49.6799 54.5329 54.2987 52.7761 55.2959C52.7761 55.2959 53.6545 58.6835 56.7361 58.8959C59.8177 59.1083 61.1785 55.7999 61.1785 55.7999L53.9533 49.6799Z" fill="white" stroke="#263238" stroke-linejoin="round"/>
<path d="M70.2844 37.821L78.1709 37.0935C78.3496 37.0771 78.5276 37.1323 78.6656 37.247C78.8037 37.3617 78.8905 37.5266 78.907 37.7053L79.4261 43.3334L70.2061 44.1839L69.6869 38.5558C69.6706 38.3795 69.724 38.2038 69.8357 38.0665C69.9474 37.9291 70.1085 37.841 70.2844 37.821Z" fill="#B83232"/>
<mask id="mask7_91_975" style="mask-type:luminance" maskUnits="userSpaceOnUse" x="69" y="37" width="11" height="8">
<path d="M70.2844 37.8208L78.1709 37.0933C78.3496 37.0768 78.5276 37.132 78.6656 37.2467C78.8037 37.3615 78.8905 37.5263 78.907 37.7051L79.4261 43.3332L70.2061 44.1836L69.6869 38.5555C69.6706 38.3793 69.724 38.2036 69.8357 38.0662C69.9474 37.9289 70.1085 37.8408 70.2844 37.8208Z" fill="white"/>
</mask>
<g mask="url(#mask7_91_975)">
<path opacity="0.3" d="M70.2844 37.8208L78.1709 37.0933C78.3496 37.0768 78.5276 37.132 78.6656 37.2467C78.8037 37.3615 78.8905 37.5263 78.907 37.7051L79.4261 43.3332L70.2061 44.1836L69.6869 38.5555C69.6706 38.3793 69.724 38.2036 69.8357 38.0662C69.9474 37.9289 70.1085 37.8408 70.2844 37.8208Z" fill="black" fill-opacity="0.7"/>
<path opacity="0.3" d="M78.4008 37.6628L76.1316 37.8721L76.5502 42.4104L78.8194 42.2011L78.4008 37.6628Z" fill="white" fill-opacity="0.7"/>
</g>
<path d="M70.2844 37.821L78.1709 37.0935C78.3496 37.0771 78.5276 37.1323 78.6656 37.247C78.8037 37.3617 78.8905 37.5266 78.907 37.7053L79.4261 43.3334L70.2061 44.1839L69.6869 38.5558C69.6706 38.3795 69.724 38.2038 69.8357 38.0665C69.9474 37.9291 70.1085 37.841 70.2844 37.821Z" stroke="#263238" stroke-linejoin="round"/>
<path d="M83.92 36.5558L91.8066 35.8283C91.9853 35.8118 92.1633 35.867 92.3013 35.9817C92.4394 36.0965 92.5262 36.2613 92.5427 36.4401L93.0618 42.0682L83.8274 42.92L83.3083 37.2919C83.2918 37.1131 83.347 36.9352 83.4617 36.7971C83.5764 36.6591 83.7413 36.5722 83.92 36.5558Z" fill="#B83232"/>
<mask id="mask8_91_975" style="mask-type:luminance" maskUnits="userSpaceOnUse" x="83" y="35" width="11" height="8">
<path d="M83.92 36.5558L91.8066 35.8283C91.9853 35.8118 92.1633 35.867 92.3013 35.9817C92.4394 36.0965 92.5262 36.2613 92.5427 36.4401L93.0618 42.0682L83.8274 42.92L83.3083 37.2919C83.2918 37.1131 83.347 36.9352 83.4617 36.7971C83.5764 36.6591 83.7413 36.5722 83.92 36.5558Z" fill="white"/>
</mask>
<g mask="url(#mask8_91_975)">
<path opacity="0.3" d="M83.92 36.5558L91.8066 35.8283C91.9853 35.8118 92.1633 35.867 92.3013 35.9817C92.4394 36.0965 92.5262 36.2613 92.5427 36.4401L93.0618 42.0682L83.8274 42.92L83.3083 37.2919C83.2918 37.1131 83.347 36.9352 83.4617 36.7971C83.5764 36.6591 83.7413 36.5722 83.92 36.5558Z" fill="black" fill-opacity="0.7"/>
<path opacity="0.3" d="M91.8733 36.4237L90.5039 36.55L90.9225 41.0884L92.2919 40.9621L91.8733 36.4237Z" fill="white" fill-opacity="0.7"/>
</g>
<path d="M83.92 36.5558L91.8066 35.8283C91.9853 35.8118 92.1633 35.867 92.3013 35.9817C92.4394 36.0965 92.5262 36.2613 92.5427 36.4401L93.0618 42.0682L83.8274 42.92L83.3083 37.2919C83.2918 37.1131 83.347 36.9352 83.4617 36.7971C83.5764 36.6591 83.7413 36.5722 83.92 36.5558Z" stroke="#263238" stroke-linejoin="round"/>
<path d="M81.0547 36.8178L88.9413 36.0903C89.12 36.0738 89.298 36.129 89.436 36.2438C89.5741 36.3585 89.6609 36.5234 89.6774 36.7021L90.1965 42.3302L80.9478 43.1833L80.4286 37.5552C80.4203 37.4655 80.43 37.375 80.4572 37.2891C80.4843 37.2032 80.5283 37.1235 80.5866 37.0548C80.645 36.9861 80.7164 36.9298 80.7968 36.8891C80.8772 36.8484 80.9649 36.8241 81.0547 36.8178Z" fill="#B83232" stroke="#263238" stroke-linejoin="round"/>
<path d="M94.6771 35.5611L102.564 34.8337C102.742 34.8172 102.92 34.8724 103.058 34.9871C103.196 35.1018 103.283 35.2667 103.3 35.4455L103.819 41.0736L94.5845 41.9253L94.0653 36.2972C94.0489 36.1185 94.104 35.9405 94.2188 35.8025C94.3335 35.6644 94.4984 35.5776 94.6771 35.5611Z" fill="#B83232" stroke="#263238" stroke-linejoin="round"/>
<path opacity="0.3" d="M89.1578 36.6718L86.8887 36.8811L87.3073 41.4194L89.5765 41.2101L89.1578 36.6718Z" fill="white" fill-opacity="0.7"/>
<path opacity="0.3" d="M102.63 35.4252L100.361 35.6345L100.78 40.1729L103.049 39.9635L102.63 35.4252Z" fill="white" fill-opacity="0.7"/>
<path d="M107.716 39.3913L110.106 65.2681L68.4001 69.1201L66.0241 43.2361C65.984 42.8036 66.1174 42.3729 66.3949 42.0387C66.6723 41.7045 67.0712 41.4942 67.5037 41.4541L105.937 37.9081C106.152 37.8883 106.368 37.911 106.573 37.9748C106.778 38.0387 106.969 38.1426 107.134 38.2804C107.3 38.4182 107.436 38.5872 107.536 38.7779C107.636 38.9685 107.697 39.1769 107.716 39.3913Z" fill="#B83232"/>
<mask id="mask9_91_975" style="mask-type:luminance" maskUnits="userSpaceOnUse" x="66" y="37" width="45" height="33">
<path d="M107.716 39.3913L110.106 65.2681L68.4001 69.1201L66.0241 43.2361C65.984 42.8036 66.1174 42.3729 66.3949 42.0387C66.6723 41.7045 67.0712 41.4942 67.5037 41.4541L105.937 37.9081C106.152 37.8883 106.368 37.911 106.573 37.9748C106.778 38.0387 106.969 38.1426 107.134 38.2804C107.3 38.4182 107.436 38.5872 107.536 38.7779C107.636 38.9685 107.697 39.1769 107.716 39.3913Z" fill="white"/>
</mask>
<g mask="url(#mask9_91_975)">
<path opacity="0.3" d="M107.716 39.3913L110.106 65.2681L68.4001 69.1201L66.0241 43.2361C65.984 42.8036 66.1174 42.3729 66.3949 42.0387C66.6723 41.7045 67.0712 41.4942 67.5037 41.4541L105.937 37.9081C106.152 37.8883 106.368 37.911 106.573 37.9748C106.778 38.0387 106.969 38.1426 107.134 38.2804C107.3 38.4182 107.436 38.5872 107.536 38.7779C107.636 38.9685 107.697 39.1769 107.716 39.3913Z" fill="black" fill-opacity="0.7"/>
</g>
<path d="M107.716 39.3913L110.106 65.2681L68.4001 69.1201L66.0241 43.2361C65.984 42.8036 66.1174 42.3729 66.3949 42.0387C66.6723 41.7045 67.0712 41.4942 67.5037 41.4541L105.937 37.9081C106.152 37.8883 106.368 37.911 106.573 37.9748C106.778 38.0387 106.969 38.1426 107.134 38.2804C107.3 38.4182 107.436 38.5872 107.536 38.7779C107.636 38.9685 107.697 39.1769 107.716 39.3913Z" stroke="#263238" stroke-linejoin="round"/>
<path d="M107.716 39.3913L110.106 65.2681L79.146 68.1229L76.7592 42.2461C76.7191 41.8136 76.8525 41.3829 77.13 41.0487C77.4074 40.7145 77.8063 40.5042 78.2388 40.4641L105.919 37.9081C106.135 37.8858 106.353 37.9066 106.56 37.9693C106.768 38.0321 106.961 38.1354 107.128 38.2735C107.295 38.4115 107.433 38.5814 107.534 38.7733C107.635 38.9653 107.697 39.1753 107.716 39.3913Z" fill="#B83232" stroke="#263238" stroke-linejoin="round"/>
<path opacity="0.3" d="M105.711 40.5037L79.2614 42.9445C79.0853 42.9566 78.9114 42.8993 78.7769 42.785C78.6424 42.6707 78.5579 42.5083 78.5414 42.3325C78.5284 42.1568 78.5848 41.9829 78.6985 41.8483C78.8123 41.7137 78.9743 41.629 79.1498 41.6125L105.599 39.1717C105.775 39.1597 105.949 39.217 106.083 39.3313C106.218 39.4456 106.302 39.608 106.319 39.7837C106.33 39.9591 106.273 40.132 106.16 40.2662C106.046 40.4004 105.885 40.4855 105.711 40.5037Z" fill="white" fill-opacity="0.7"/>
<path d="M59.2345 40.5215C59.2345 40.5215 53.1325 39.2975 52.4485 43.2251C51.7645 47.1527 54.0001 48.8231 54.0001 48.8231L59.2345 40.5215Z" fill="#263238"/>
<path d="M54 50.9796C53.3027 49.0271 53.1939 46.913 53.6868 44.8992C54.2844 42.3792 57.2868 38.9124 61.8408 42.0624C64.1844 43.686 64.3284 47.2104 63.5976 50.436C63.4248 51.2064 63.5544 51.9588 63.2988 52.668C62.3988 55.152 60.7536 57.0636 59.8536 57.1068C58.3524 57.1824 55.35 55.3644 55.4724 53.7804" fill="white"/>
<path d="M54 50.9796C53.3027 49.0271 53.1939 46.913 53.6868 44.8992C54.2844 42.3792 57.2868 38.9124 61.8408 42.0624C64.1844 43.686 64.3284 47.2104 63.5976 50.436C63.4248 51.2064 63.5544 51.9588 63.2988 52.668C62.3988 55.152 60.7536 57.0636 59.8536 57.1068C58.3524 57.1824 55.35 55.3644 55.4724 53.7804" stroke="#263238" stroke-linecap="round" stroke-linejoin="round"/>
<path d="M60.0805 49.8384C60.0805 49.8384 58.8673 48.96 57.7009 49.68" stroke="#263238" stroke-linecap="round" stroke-linejoin="round"/>
<path d="M62.3701 49.6799C62.3701 49.6799 63.2881 48.8375 63.8857 48.9599" stroke="#263238" stroke-linecap="round" stroke-linejoin="round"/>
<path d="M58.3669 51.1849C58.3669 51.4081 58.4785 51.5917 58.6189 51.5917C58.7593 51.5917 58.8745 51.4081 58.8745 51.1849C58.8745 50.9617 58.7593 50.7817 58.6189 50.7817C58.4785 50.7817 58.3669 50.9617 58.3669 51.1849Z" fill="#263238"/>
<path d="M62.3701 51.3647C62.5113 51.3647 62.6257 51.1842 62.6257 50.9615C62.6257 50.7389 62.5113 50.5583 62.3701 50.5583C62.2289 50.5583 62.1145 50.7389 62.1145 50.9615C62.1145 51.1842 62.2289 51.3647 62.3701 51.3647Z" fill="#263238"/>
<path d="M61.8554 50.5295C61.409 51.1127 62.0354 53.3339 61.8554 53.4923C61.6754 53.6507 60.5306 53.2007 60.5306 53.2007C60.5306 53.2007 60.2642 52.8623 60.8222 52.6823" stroke="#263238" stroke-linecap="round" stroke-linejoin="round"/>
<path d="M60.8402 54.6085C60.8402 54.6085 59.303 54.6085 58.8926 54.0469" stroke="#263238" stroke-linecap="round" stroke-linejoin="round"/>
<path d="M57.161 46.2888L57.0422 48.1464C57.0422 48.1464 55.7246 48.8268 55.3934 49.518C55.1963 49.9707 55.1242 50.468 55.1846 50.958C55.1846 50.958 54.3854 49.5612 53.9534 49.6764C53.7986 49.716 53.7986 50.3028 53.7986 50.3028C53.7986 50.3028 51.9986 46.2852 53.6258 44.1612C55.253 42.0372 57.161 46.2888 57.161 46.2888Z" fill="#757575" stroke="#263238" stroke-linejoin="round"/>
<path d="M54.6229 50.5585C54.6229 50.5585 54.2629 49.2085 53.0497 48.8521C51.8365 48.4957 52.6681 51.7321 53.7013 52.1533C54.7345 52.5745 54.9937 52.8733 55.0549 52.4881" fill="white"/>
<path d="M54.6229 50.5585C54.6229 50.5585 54.2629 49.2085 53.0497 48.8521C51.8365 48.4957 52.6681 51.7321 53.7013 52.1533C54.7345 52.5745 54.9937 52.8733 55.0549 52.4881" stroke="#263238" stroke-linecap="round" stroke-linejoin="round"/>
<path d="M52.9705 46.0549C52.8697 45.9181 52.4233 42.4549 54.7093 40.8997C56.9953 39.3445 60.8581 39.5101 63.3169 41.6629C65.7757 43.8157 65.0773 47.5489 63.3169 48.8233V47.2645C63.3169 47.2645 62.5069 48.8269 60.0769 48.9565L60.8185 47.8117C60.8185 47.8117 59.6233 48.5317 57.5173 48.4705C57.5173 48.4705 58.5073 47.6821 58.3633 46.9801C58.3669 46.9801 55.0225 48.8629 52.9705 46.0549Z" fill="#263238"/>
<path d="M53.3988 58.5396C51.714 58.7412 49.3164 60.9408 50.8788 64.8468C51.876 67.3236 60.0696 65.8512 60.0696 65.8512C63.108 64.5984 67.5468 60.0912 70.8048 57.9996C70.8048 57.9996 70.1172 53.6796 69.3252 54.2916C65.6424 57.1104 62.6148 57.3048 57.4776 59.7744C57.4884 59.76 54.4572 58.4136 53.3988 58.5396Z" fill="white" stroke="#263238" stroke-linejoin="round"/>
<path d="M57.1609 63.3347C57.1105 64.9475 57.7729 65.2319 58.8889 65.6135Z" fill="white"/>
<path d="M57.1609 63.3347C57.1105 64.9475 57.7729 65.2319 58.8889 65.6135" stroke="#263238" stroke-linecap="round" stroke-linejoin="round"/>
<path d="M69.0806 54.6084C69.1562 54.3744 70.5206 51.9768 70.9058 51.3684C71.291 50.76 73.0118 50.2092 73.6778 49.842C74.3438 49.4748 74.3978 48.9168 74.7578 49.3164C75.1178 49.716 74.7578 50.6268 72.7634 51.5952C73.472 51.6344 74.1823 51.6344 74.891 51.5952C75.4238 51.516 75.899 51.0336 76.1366 51.3684C76.3742 51.7032 76.421 52.3044 75.233 52.6716C74.668 52.8764 74.0762 52.9977 73.4762 53.0316C74.0574 53.1558 74.6289 53.3218 75.1862 53.5284C75.377 53.6688 75.6614 53.9964 75.9458 54.0468C76.2302 54.0972 76.5398 54.4068 76.0178 54.7668C75.8327 54.8691 75.6253 54.9246 75.4138 54.9283C75.2024 54.9321 74.9932 54.884 74.8046 54.7884C74.8046 54.7884 76.1834 55.4544 75.755 55.8684C75.3266 56.2824 73.955 56.1996 73.955 56.1996C73.955 56.1996 71.921 58.68 70.2002 58.1616" fill="white"/>
<path d="M69.0806 54.6084C69.1562 54.3744 70.5206 51.9768 70.9058 51.3684C71.291 50.76 73.0118 50.2092 73.6778 49.842C74.3438 49.4748 74.3978 48.9168 74.7578 49.3164C75.1178 49.716 74.7578 50.6268 72.7634 51.5952C73.472 51.6344 74.1823 51.6344 74.891 51.5952C75.4238 51.516 75.899 51.0336 76.1366 51.3684C76.3742 51.7032 76.421 52.3044 75.233 52.6716C74.668 52.8764 74.0762 52.9977 73.4762 53.0316C74.0574 53.1558 74.6289 53.3218 75.1862 53.5284C75.377 53.6688 75.6614 53.9964 75.9458 54.0468C76.2302 54.0972 76.5398 54.4068 76.0178 54.7668C75.8327 54.8691 75.6253 54.9246 75.4138 54.9283C75.2024 54.9321 74.9932 54.884 74.8046 54.7884C74.8046 54.7884 76.1834 55.4544 75.755 55.8684C75.3266 56.2824 73.955 56.1996 73.955 56.1996C73.955 56.1996 71.921 58.68 70.2002 58.1616" stroke="#263238" stroke-linecap="round" stroke-linejoin="round"/>
<path d="M71.5176 51.3647C71.634 51.3918 71.7406 51.4505 71.8258 51.5343C71.9109 51.6182 71.9712 51.724 72 51.8399C72.1188 52.2647 72.468 52.29 72.6804 52.7652C72.8928 53.2404 72.8316 53.9748 73.0404 54.2268C73.2492 54.4788 73.0404 55.5407 73.0404 55.5407" stroke="#263238" stroke-linecap="round" stroke-linejoin="round"/>
<path d="M53.7516 58.2337C52.8696 57.1105 50.8896 57.6181 50.8896 57.6181" stroke="white" stroke-linecap="round" stroke-linejoin="round"/>
<path d="M49.8096 55.5481C49.8096 55.5481 51.8472 55.8469 52.4484 57.5425" stroke="white" stroke-linecap="round" stroke-linejoin="round"/>
<path d="M53.3989 66.2831C53.3989 66.2831 51.4117 67.8203 48.3877 65.6135" stroke="white" stroke-linecap="round" stroke-linejoin="round"/>
<path d="M50.8897 66.7476C50.8897 66.7476 49.8817 68.1408 47.4265 68.1228" stroke="white" stroke-linecap="round" stroke-linejoin="round"/>
<path d="M63.5184 84.2761C63.5184 84.2761 58.32 88.4197 53.0388 87.8761" stroke="white" stroke-linecap="round" stroke-linejoin="round"/>
<path d="M49.4678 75.1716C49.4678 75.1716 57.5354 81.09 63.5078 81.468" stroke="white" stroke-linecap="round" stroke-linejoin="round"/>
<path d="M49.6799 118.984C51.0678 118.214 52.6994 118.01 54.2339 118.415C56.8655 119.077 63.7019 128.855 64.6523 129.809C65.6027 130.763 67.3811 131.249 69.0191 132.973C71.6111 135.677 75.3803 138.067 75.7619 138.067C76.1435 138.067 76.4495 137.83 76.9247 137.736C77.3999 137.642 81.0791 137.308 81.0791 137.308C81.0791 137.308 82.3139 137.581 81.0791 138.11C79.8443 138.64 79.9379 139.111 79.9379 139.111C79.9379 139.111 79.6895 139.511 80.1863 139.892C80.6831 140.274 80.9747 140.065 81.6839 141.07C82.3931 142.074 80.6831 141.505 80.6831 141.505C80.6831 141.505 81.0611 142.585 80.3015 142.477C79.5419 142.369 80.2079 143.532 78.9731 143.374C77.7383 143.215 75.0959 141.548 74.4335 139.802C74.4335 139.802 63.6551 134.651 62.0423 133.322C60.4295 131.994 53.6399 124.87 53.1755 124.776" fill="#263238"/>
<path d="M77.879 128.632H85.7989C85.9784 128.632 86.1506 128.703 86.2775 128.83C86.4044 128.957 86.4758 129.129 86.4758 129.308V134.96H77.2021V129.308C77.2021 129.129 77.2735 128.957 77.4004 128.83C77.5273 128.703 77.6995 128.632 77.879 128.632Z" fill="#B83232"/>
<mask id="mask10_91_975" style="mask-type:luminance" maskUnits="userSpaceOnUse" x="77" y="128" width="10" height="7">
<path d="M77.879 128.632H85.7989C85.9784 128.632 86.1506 128.703 86.2775 128.83C86.4044 128.957 86.4758 129.129 86.4758 129.308V134.96H77.2021V129.308C77.2021 129.129 77.2735 128.957 77.4004 128.83C77.5273 128.703 77.6995 128.632 77.879 128.632Z" fill="white"/>
</mask>
<g mask="url(#mask10_91_975)">
<path opacity="0.3" d="M77.879 128.632H85.7989C85.9784 128.632 86.1506 128.703 86.2775 128.83C86.4044 128.957 86.4758 129.129 86.4758 129.308V134.96H77.2021V129.308C77.2021 129.129 77.2735 128.957 77.4004 128.83C77.5273 128.703 77.6995 128.632 77.879 128.632Z" fill="black" fill-opacity="0.7"/>
<path opacity="0.3" d="M85.9609 129.229H83.6821V133.787H85.9609V129.229Z" fill="white" fill-opacity="0.7"/>
</g>
<path d="M77.879 128.632H85.7989C85.9784 128.632 86.1506 128.703 86.2775 128.83C86.4044 128.957 86.4758 129.129 86.4758 129.308V134.96H77.2021V129.308C77.2021 129.129 77.2735 128.957 77.4004 128.83C77.5273 128.703 77.6995 128.632 77.879 128.632Z" stroke="#263238" stroke-linejoin="round"/>
<path d="M91.5589 128.632H99.4789C99.6584 128.632 99.8305 128.703 99.9575 128.83C100.084 128.957 100.156 129.129 100.156 129.308V134.96H90.8821V129.308C90.8821 129.22 90.8996 129.132 90.9336 129.049C90.9676 128.967 91.0175 128.893 91.0803 128.83C91.1432 128.767 91.2178 128.717 91.2999 128.683C91.382 128.649 91.47 128.632 91.5589 128.632Z" fill="#B83232"/>
<mask id="mask11_91_975" style="mask-type:luminance" maskUnits="userSpaceOnUse" x="90" y="128" width="11" height="7">
<path d="M91.5589 128.632H99.4789C99.6584 128.632 99.8305 128.703 99.9575 128.83C100.084 128.957 100.156 129.129 100.156 129.308V134.96H90.8821V129.308C90.8821 129.22 90.8996 129.132 90.9336 129.049C90.9676 128.967 91.0175 128.893 91.0803 128.83C91.1432 128.767 91.2178 128.717 91.2999 128.683C91.382 128.649 91.47 128.632 91.5589 128.632Z" fill="white"/>
</mask>
<g mask="url(#mask11_91_975)">
<path opacity="0.3" d="M91.5589 128.632H99.4789C99.6584 128.632 99.8305 128.703 99.9575 128.83C100.084 128.957 100.156 129.129 100.156 129.308V134.96H90.8821V129.308C90.8821 129.22 90.8996 129.132 90.9336 129.049C90.9676 128.967 91.0175 128.893 91.0803 128.83C91.1432 128.767 91.2178 128.717 91.2999 128.683C91.382 128.649 91.47 128.632 91.5589 128.632Z" fill="black" fill-opacity="0.7"/>
<path opacity="0.3" d="M99.4897 129.229H98.1145V133.787H99.4897V129.229Z" fill="white" fill-opacity="0.7"/>
</g>
<path d="M91.5589 128.632H99.4789C99.6584 128.632 99.8305 128.703 99.9575 128.83C100.084 128.957 100.156 129.129 100.156 129.308V134.96H90.8821V129.308C90.8821 129.22 90.8996 129.132 90.9336 129.049C90.9676 128.967 91.0175 128.893 91.0803 128.83C91.1432 128.767 91.2178 128.717 91.2999 128.683C91.382 128.649 91.47 128.632 91.5589 128.632Z" stroke="#263238" stroke-linejoin="round"/>
<path d="M88.6788 128.632H96.5987C96.7782 128.632 96.9504 128.703 97.0773 128.83C97.2042 128.957 97.2756 129.129 97.2756 129.308V134.96H88.002V129.308C88.002 129.22 88.0195 129.132 88.0535 129.049C88.0875 128.967 88.1373 128.893 88.2002 128.83C88.263 128.767 88.3376 128.717 88.4198 128.683C88.5019 128.649 88.5899 128.632 88.6788 128.632Z" fill="#B83232" stroke="#263238" stroke-linejoin="round"/>
<path d="M102.359 128.632H110.279C110.458 128.632 110.631 128.703 110.757 128.83C110.884 128.957 110.956 129.129 110.956 129.308V134.96H101.682V129.308C101.682 129.129 101.753 128.957 101.88 128.83C102.007 128.703 102.179 128.632 102.359 128.632Z" fill="#B83232" stroke="#263238" stroke-linejoin="round"/>
<path opacity="0.3" d="M96.7607 129.229H94.4819V133.787H96.7607V129.229Z" fill="white" fill-opacity="0.7"/>
<path opacity="0.3" d="M110.29 129.229H108.011V133.787H110.29V129.229Z" fill="white" fill-opacity="0.7"/>
<path d="M114.991 133.643V159.631H73.1196V133.643C73.1196 133.208 73.2922 132.792 73.5994 132.484C73.9066 132.177 74.3232 132.005 74.7576 132.005H113.353C113.788 132.005 114.204 132.177 114.511 132.484C114.819 132.792 114.991 133.208 114.991 133.643Z" fill="#B83232"/>
<mask id="mask12_91_975" style="mask-type:luminance" maskUnits="userSpaceOnUse" x="73" y="132" width="42" height="28">
<path d="M114.991 133.643V159.631H73.1196V133.643C73.1196 133.208 73.2922 132.792 73.5994 132.484C73.9066 132.177 74.3232 132.005 74.7576 132.005H113.353C113.788 132.005 114.204 132.177 114.511 132.484C114.819 132.792 114.991 133.208 114.991 133.643Z" fill="white"/>
</mask>
<g mask="url(#mask12_91_975)">
<path opacity="0.3" d="M114.991 133.643V159.631H73.1196V133.643C73.1196 133.208 73.2922 132.792 73.5994 132.484C73.9066 132.177 74.3232 132.005 74.7576 132.005H113.353C113.788 132.005 114.204 132.177 114.511 132.484C114.819 132.792 114.991 133.208 114.991 133.643Z" fill="black" fill-opacity="0.7"/>
</g>
<path d="M114.991 133.643V159.631H73.1196V133.643C73.1196 133.208 73.2922 132.792 73.5994 132.484C73.9066 132.177 74.3232 132.005 74.7576 132.005H113.353C113.788 132.005 114.204 132.177 114.511 132.484C114.819 132.792 114.991 133.208 114.991 133.643Z" stroke="#263238" stroke-linejoin="round"/>
<path d="M114.991 133.643V159.631H83.9197V133.643C83.9197 133.208 84.0922 132.792 84.3994 132.484C84.7066 132.177 85.1233 132.005 85.5577 132.005H113.353C113.788 132.005 114.204 132.177 114.512 132.484C114.819 132.792 114.991 133.208 114.991 133.643Z" fill="#B83232" stroke="#263238" stroke-linejoin="round"/>
<path opacity="0.3" d="M112.889 134.568H86.3281C86.1486 134.568 85.9764 134.497 85.8495 134.37C85.7226 134.243 85.6513 134.071 85.6513 133.891C85.6494 133.801 85.6655 133.712 85.6986 133.628C85.7318 133.544 85.7813 133.468 85.8443 133.403C85.9074 133.339 85.9826 133.288 86.0657 133.253C86.1488 133.218 86.238 133.2 86.3281 133.2H112.889C113.068 133.2 113.241 133.271 113.367 133.398C113.494 133.525 113.566 133.697 113.566 133.877C113.568 133.967 113.552 134.056 113.518 134.14C113.485 134.224 113.436 134.3 113.373 134.365C113.31 134.429 113.234 134.48 113.151 134.515C113.068 134.55 112.979 134.568 112.889 134.568Z" fill="white" fill-opacity="0.7"/>
<path d="M63.72 159.631C61.56 159.631 58.5252 158.241 55.0296 156.773C51.4044 155.246 47.2752 153.633 43.0848 153.392C41.5224 153.302 42.4692 159.631 42.4692 159.631H39.0492C39.0492 159.631 35.6724 155.124 35.28 151.088C35.28 151.088 38.0376 149.385 38.7 149.288C38.9284 149.264 39.158 149.254 39.3876 149.256C40.1292 149.256 41.1192 149.288 41.1192 149.288C40.9608 149.195 38.4372 147.675 37.044 146.131C35.8956 144.857 35.37 142.844 35.3304 141.642C35.3749 140.846 35.4627 140.053 35.5932 139.266L53.5644 139.565C53.5644 139.565 53.7588 139.701 54.1044 139.957C56.1888 141.476 63.8064 147.135 67.6152 151.401C68.8464 152.78 69.678 154.011 69.8004 154.911C70.3728 159.062 66.978 159.631 63.72 159.631Z" fill="#757575" stroke="#263238" stroke-linejoin="round"/>
<path d="M67.6188 151.394L58.878 153.392C57.3794 154.25 56.0683 155.399 55.0224 156.773C51.3972 155.246 47.268 153.634 43.0776 153.392C41.5152 153.302 42.462 159.631 42.462 159.631H39.042C39.042 159.631 35.6724 155.124 35.28 151.088C35.28 151.088 38.4624 155.624 39.24 157.928C39.24 157.928 40.4748 153.666 42.48 151.956C41.5744 150.936 40.5453 150.033 39.4164 149.267C40.158 149.267 41.148 149.299 41.148 149.299C40.9896 149.206 38.466 147.686 37.0728 146.142C35.9244 144.868 35.46 142.852 35.3592 141.653C35.3088 141.062 35.3808 139.277 35.3808 139.277C35.3808 139.277 48.7836 141.188 54.1332 139.968C56.1924 141.48 63.81 147.128 67.6188 151.394Z" fill="#263238"/>
<path d="M53.5681 151.088C53.5681 151.088 60.6889 154.656 62.5897 156.053C64.4905 157.45 65.0557 157.072 65.0557 157.072" stroke="#263238" stroke-linecap="round" stroke-linejoin="round"/>
<path d="M37.0476 150.71C37.0476 150.71 38.7576 153.32 38.8476 154.102" stroke="#263238" stroke-linecap="round" stroke-linejoin="round"/>
<path d="M65.6892 100.613C65.6892 100.613 69.48 98.964 69.12 105.977C68.76 112.99 70.0452 113.35 70.0452 113.35C70.0452 113.35 60.5052 117.266 58.0824 113.918C55.6596 110.57 57.96 101.408 65.6892 100.613Z" fill="#263238"/>
<path d="M65.1599 113.35C65.1599 113.35 61.2359 115.2 60.8795 116.91C60.5231 118.62 55.6091 116.046 55.6091 116.046L59.1695 110.927L65.1599 113.35Z" fill="white" stroke="#263238" stroke-linejoin="round"/>
<path d="M39.4309 132.12C30.4309 143.582 37.7353 149.112 47.9377 148.198L45.8929 151.438L51.0265 152.327C51.0265 152.327 54.9613 149.756 60.3253 147.009C69.4549 142.329 73.1449 142.61 72.2053 137.927C71.2657 133.243 60.0769 130.205 48.8593 135.14C48.8485 135.137 42.7573 127.901 39.4309 132.12Z" fill="#757575" stroke="#263238" stroke-linejoin="round"/>
<path d="M42.57 157.071C42.57 157.071 44.9136 150.591 45.8928 150.231C46.872 149.871 50.5728 151.275 51.0264 152.319C51.0264 152.319 52.2756 150.404 52.7868 151.218C53.298 152.031 52.56 153.378 52.7868 154.407C53.0136 155.437 55.5444 156.877 56.556 157.068C57.5676 157.259 58.1436 157.827 58.1436 158.396V159.631H42.57C42.3972 159.226 42.3081 158.791 42.3081 158.351C42.3081 157.911 42.3972 157.476 42.57 157.071Z" fill="white" stroke="#263238" stroke-linejoin="round"/>
<path d="M52.7868 153.392C52.7868 153.392 50.724 154.411 49.9716 154.112C49.2192 153.814 50.3568 155.822 50.6412 156.013C50.9256 156.204 52.8012 155.347 52.8012 155.347" stroke="#263238" stroke-linecap="round" stroke-linejoin="round"/>
<path d="M44.5176 152.323C44.5176 152.323 47.3184 152.377 48.1716 153.403" stroke="#263238" stroke-linecap="round" stroke-linejoin="round"/>
<path d="M42.5701 157.072C42.5701 157.072 47.0341 158.116 47.4121 158.116C48.026 157.994 48.6282 157.819 49.2121 157.594C49.2121 157.594 50.4361 158.209 51.2497 158.591C52.0633 158.972 57.3697 158.591 57.3697 158.591" stroke="#263238" stroke-linecap="round" stroke-linejoin="round"/>
<path d="M47.9377 148.205C52.2001 147.744 60.4801 142.491 63.3601 140.666C66.2401 138.841 66.9601 139.32 66.9601 139.32" stroke="#263238" stroke-linecap="round" stroke-linejoin="round"/>
<path d="M35.3557 139.259L36.0361 134.093L37.6777 132.854C40.3381 126.399 52.3909 114.343 55.6777 114.383C60.6133 114.44 61.4845 119.621 62.0929 125.291C62.7013 130.961 55.0117 130.107 55.0117 130.107V131.529L50.6377 133.794L53.2873 133.711C53.2873 133.711 45.6661 141.12 35.3557 139.259Z" fill="#B83232" stroke="#263238" stroke-linejoin="round"/>
<path d="M56.7181 104.4C57.7513 101.16 62.4781 100.296 64.1773 100.825C65.5721 101.37 66.7151 102.413 67.3849 103.752C67.8169 104.684 66.9133 106.333 67.5577 107.294C68.4793 108.673 68.4001 111.582 68.0689 113.414C67.8889 114.386 63.8461 114.962 60.5413 112.694C56.9917 110.239 55.7173 107.517 56.7181 104.4Z" fill="white" stroke="#263238" stroke-linejoin="round"/>
<path d="M61.4952 99.8568C61.4952 99.8568 65.6568 99.18 65.6856 100.249C65.8692 107.352 61.6104 108.842 61.6104 108.842C61.6104 108.842 59.8716 107.456 59.4828 108.407C59.094 109.357 60.0948 111.985 61.326 112.039C61.0422 112.48 60.8872 112.991 60.8783 113.515C60.8694 114.039 61.007 114.555 61.2756 115.006C61.2756 115.006 54.2268 116.183 53.6436 112.918C53.916 111.783 54.1109 110.63 54.2268 109.469C54.684 104.893 53.6148 101.815 61.4952 99.8568Z" fill="#263238"/>
<path d="M67.0537 107.096C67.9213 107.878 68.5441 107.878 68.5333 108.158C68.5009 109.033 67.4533 109.469 67.4533 109.469" fill="white"/>
<path d="M67.0537 107.096C67.9213 107.878 68.5441 107.878 68.5333 108.158C68.5009 109.033 67.4533 109.469 67.4533 109.469" stroke="#263238" stroke-linecap="round" stroke-linejoin="round"/>
<path d="M67.4316 110.927C66.8186 111.134 66.157 111.151 65.5344 110.974" stroke="#263238" stroke-linecap="round" stroke-linejoin="round"/>
<path d="M65.1239 102.737C65.1239 102.737 67.8923 101.934 67.3847 106.427C67.3847 106.427 68.5367 104.861 68.5331 103.1C68.5331 100.051 64.4543 100.663 64.4543 100.663L64.9871 102.823" fill="#263238"/>
<path d="M67.6404 104.936C67.5356 104.867 67.4178 104.819 67.294 104.796C67.1703 104.773 67.0432 104.776 66.9204 104.803" stroke="#263238" stroke-linecap="round" stroke-linejoin="round"/>
<path d="M65.7757 104.886C65.7757 104.886 64.2889 104.972 63.6445 105.966" stroke="#263238" stroke-linecap="round" stroke-linejoin="round"/>
<path d="M65.4193 107.251C65.4409 107.489 65.3401 107.694 65.1925 107.708C65.0449 107.723 64.9081 107.539 64.8829 107.301C64.8577 107.064 64.9621 106.859 65.1097 106.844C65.2573 106.83 65.3977 107.014 65.4193 107.251Z" fill="#263238"/>
<path d="M48.1716 149.285C48.1716 149.285 51.4836 149.645 52.2036 151.085" stroke="#263238" stroke-linecap="round" stroke-linejoin="round"/>
<path d="M56.5562 116.813C57.944 116.043 59.5756 115.839 61.1101 116.244C63.7453 116.91 70.5782 126.684 71.5286 127.638C72.479 128.592 74.2574 129.078 75.8954 130.802C78.4874 133.506 82.2566 135.896 82.6382 135.896C83.0198 135.896 83.3257 135.659 83.8009 135.565C84.2761 135.471 87.9554 135.137 87.9554 135.137C87.9554 135.137 89.1902 135.414 87.9554 135.939C86.7206 136.465 86.8141 136.944 86.8141 136.944C86.8141 136.944 86.5693 137.34 87.0625 137.721C87.5557 138.103 87.8509 137.894 88.5601 138.899C89.2693 139.903 87.5593 139.334 87.5593 139.334C87.5593 139.334 87.9374 140.414 87.1778 140.306C86.4182 140.198 87.0841 141.361 85.8493 141.203C84.6145 141.044 81.9721 139.377 81.3097 137.631C81.3097 137.631 70.5314 132.48 68.9186 131.151C67.3058 129.823 60.5233 122.699 60.0445 122.605" fill="white"/>
<path d="M56.5562 116.813C57.944 116.043 59.5756 115.839 61.1101 116.244C63.7453 116.91 70.5782 126.684 71.5286 127.638C72.479 128.592 74.2574 129.078 75.8954 130.802C78.4874 133.506 82.2566 135.896 82.6382 135.896C83.0198 135.896 83.3257 135.659 83.8009 135.565C84.2761 135.471 87.9554 135.137 87.9554 135.137C87.9554 135.137 89.1902 135.414 87.9554 135.939C86.7206 136.465 86.8141 136.944 86.8141 136.944C86.8141 136.944 86.5693 137.34 87.0625 137.721C87.5557 138.103 87.8509 137.894 88.5601 138.899C89.2693 139.903 87.5593 139.334 87.5593 139.334C87.5593 139.334 87.9374 140.414 87.1778 140.306C86.4182 140.198 87.0841 141.361 85.8493 141.203C84.6145 141.044 81.9721 139.377 81.3097 137.631C81.3097 137.631 70.5314 132.48 68.9186 131.151C67.3058 129.823 60.5233 122.699 60.0445 122.605" stroke="#263238" stroke-linecap="round" stroke-linejoin="round"/>
<path d="M55.0081 115.769C55.0081 115.769 60.3217 114.347 62.1757 115.391C64.0297 116.435 67.5433 121.277 67.5433 121.277C67.5433 121.277 63.2593 125.111 61.9345 124.761C60.6097 124.412 56.5561 123.84 56.5561 123.84" fill="#B83232"/>
<path d="M55.0081 115.769C55.0081 115.769 60.3217 114.347 62.1757 115.391C64.0297 116.435 67.5433 121.277 67.5433 121.277C67.5433 121.277 63.2593 125.111 61.9345 124.761C60.6097 124.412 56.5561 123.84 56.5561 123.84" stroke="#263238" stroke-linecap="round" stroke-linejoin="round"/>
<path d="M59.6159 124.308C59.6159 124.308 57.6899 125.366 56.9807 125.366" stroke="#263238" stroke-linecap="round" stroke-linejoin="round"/>
<path d="M56.5562 118.998C56.7182 119.282 56.6641 122.396 60.0445 123.365" stroke="#263238" stroke-linecap="round" stroke-linejoin="round"/>
<path d="M38.4875 132.955C38.4875 132.955 45.6875 134.19 48.1715 132.005" stroke="#263238" stroke-linecap="round" stroke-linejoin="round"/>
<path d="M50.6341 133.794C50.6341 133.794 48.8341 133.477 48.1717 134.402C47.5093 135.328 43.9021 136.202 43.9021 136.202" stroke="#263238" stroke-linecap="round" stroke-linejoin="round"/>
<path d="M36.1621 140.666C36.1621 140.666 35.1217 145.152 39.5605 147.146" stroke="#263238" stroke-linecap="round" stroke-linejoin="round"/>
<path d="M38.4875 140.976C38.4875 140.976 38.5127 143.186 39.2075 144.396L41.4143 145.116L43.8839 143.741C43.8839 143.741 43.3583 140.915 43.3115 140.342" stroke="#263238" stroke-linecap="round" stroke-linejoin="round"/>
</svg>
