<svg width="86" height="62" viewBox="0 0 86 62" fill="none" xmlns="http://www.w3.org/2000/svg">
<path d="M82.7408 0.544482C83.2533 0.0488586 83.998 -0.129891 84.6866 0.0976083C85.4714 0.365732 86 1.11323 86 1.9501V17.1358C86 27.7956 77.3435 36.4001 66.8774 36.4001C60.7113 36.4001 55.3941 32.3781 53.4643 26.7557C50.6295 29.2581 48.8438 32.9387 48.8438 37.05C48.8438 38.1306 47.9869 39 46.9219 39C45.8568 39 45 38.1306 45 37.05C45 30.9645 48.059 25.602 52.6955 22.4494C55.5223 20.532 58.8936 19.5 62.2969 19.5H68.7031C69.7681 19.5 70.625 18.6306 70.625 17.55C70.625 16.4694 69.7681 15.6001 68.7031 15.6001H62.2969C59.1178 15.6001 56.1068 16.3151 53.4082 17.5907C55.274 11.9032 60.5512 7.80008 66.7812 7.80008C72.0984 7.80008 76.0543 6.00447 78.6889 4.22509C80.2263 3.1851 81.5317 1.94198 82.7489 0.544482H82.7408Z" fill="#7A9B55"/>
<path d="M28.6886 61.907C19.1976 61.907 12.0435 60.5049 7.22607 57.7007C2.40869 54.8247 0 49.9354 0 43.0329C0 38.6469 1.07852 35.0878 3.23556 32.3556C5.46449 29.6233 8.5203 27.646 12.403 26.4237C16.2856 25.1295 20.7076 24.4824 25.6687 24.4824C28.1134 24.4824 30.3423 24.6262 32.3556 24.9138C34.3688 25.2014 36.2742 25.5609 38.0717 25.9923V37.101C36.9932 36.7415 35.5552 36.418 33.7576 36.1304C31.9601 35.8428 30.2345 35.699 28.5807 35.699C24.77 35.699 21.9299 36.2382 20.0604 37.3167C18.2629 38.3953 17.3641 40.1928 17.3641 42.7093C17.3641 45.2259 18.2629 46.9875 20.0604 47.9941C21.9299 49.0007 24.5543 49.504 27.9336 49.504C30.1626 49.504 32.3196 49.2883 34.4047 48.8569C36.4899 48.3536 38.2515 47.5267 39.6895 46.3763L37.5324 51.661C37.0291 50.5106 36.6337 49.4681 36.3461 48.5333C36.0585 47.5986 35.8428 46.628 35.699 45.6213C35.5552 44.5428 35.4473 43.2845 35.3754 41.8465C35.3754 40.3366 35.3754 38.4672 35.3754 36.2382V24.9138C35.3754 21.9658 34.8721 19.7009 33.8655 18.1191C32.8589 16.5373 31.313 15.4947 29.2279 14.9914C27.2146 14.4162 24.6621 14.1286 21.5704 14.1286C18.4786 14.1286 15.5307 14.4162 12.7265 14.9914C9.99427 15.4947 7.76533 16.1418 6.0397 16.9327H4.96119V2.48059C7.54963 1.76158 10.4257 1.18637 13.5893 0.754966C16.8249 0.251655 20.2402 0 23.8353 0C28.2212 0 32.2477 0.395458 35.9147 1.18637C39.5816 1.97729 42.7453 3.34341 45.4056 5.28474C48.1379 7.15417 50.223 9.77857 51.661 13.1579C53.0991 16.4654 53.8181 20.7435 53.8181 25.9923V39.0424C53.8181 40.5523 53.854 42.4217 53.9259 44.6507C53.9978 46.8796 54.1057 49.0726 54.2495 51.2296C54.3933 53.3867 54.6449 55.1123 55.0044 56.4065L54.573 57.2693C52.0565 58.2041 49.3962 59.0309 46.592 59.7499C43.7879 60.397 40.8759 60.9004 37.856 61.2599C34.8362 61.6913 31.7803 61.907 28.6886 61.907Z" fill="#B83232"/>
</svg>
