<svg width="250" height="57" viewBox="0 0 250 57" fill="none" xmlns="http://www.w3.org/2000/svg">
<path d="M39.8711 0.287009C40.0783 0.0468438 40.3949 -0.0552815 40.6992 0.0293664C41.0461 0.129875 41.2962 0.456041 41.3205 0.837596L41.7612 7.76114C42.0705 12.6213 38.579 16.7841 34.0556 17.074C31.3907 17.2448 28.976 15.5584 27.9788 13.0484C26.8262 14.2679 26.1613 15.9954 26.2806 17.8699C26.3119 18.3625 25.9669 18.7826 25.5066 18.8121C25.0463 18.8416 24.6507 18.469 24.6194 17.9763C24.4428 15.2017 25.6092 12.6721 27.5216 11.1063C28.6876 10.1538 30.1147 9.58995 31.5856 9.49568L34.3543 9.31824C34.8146 9.28873 35.1597 8.86863 35.1283 8.37594C35.0969 7.88326 34.7014 7.51062 34.2411 7.54012L31.4724 7.71757C30.0984 7.80562 28.8179 8.21501 27.6886 8.87136C28.3299 6.22658 30.4916 4.20968 33.1842 4.03712C35.4822 3.88983 37.1397 2.96159 38.2267 2.07734C38.8611 1.56059 39.3891 0.957661 39.8746 0.286787L39.8711 0.287009Z" fill="#7A9B55"/>
<path d="M0 45.9769L3.78791 23.5507C4.19826 21.08 4.86115 19.0528 5.77656 17.469C6.69197 15.8852 7.82834 14.6499 9.18567 13.763C10.5746 12.8761 12.2002 12.2584 14.0626 11.9099C15.925 11.5615 18.0083 11.3873 20.3127 11.3873C21.6384 11.3873 23.0747 11.4665 24.6214 11.6249C26.1681 11.7832 27.5728 12.005 28.8354 12.2901L28.9301 12.8602C28.8039 13.4304 28.7092 14.1906 28.646 15.1408C28.6145 16.0911 28.5829 17.0572 28.5513 18.0392C28.5513 19.0211 28.5513 19.8288 28.5513 20.4623V45.9769H20.1706V21.3176C20.1706 20.399 20.2022 19.5596 20.2653 18.7994C20.36 18.0075 20.4705 17.2948 20.5967 16.6613L21.6858 18.7043C21.3385 18.6093 20.8651 18.546 20.2653 18.5143C19.6971 18.4509 19.1605 18.4193 18.6554 18.4193C17.1718 18.4193 15.9881 18.6252 15.1043 19.0369C14.2204 19.417 13.5418 20.003 13.0683 20.7949C12.6264 21.5868 12.2949 22.6004 12.074 23.8358L8.42809 45.9769H0ZM6.06065 37.2345V30.4876H24.0532V37.2345H6.06065Z" fill="#B83232"/>
<path d="M35.7894 57V29.7274C35.7894 29.0939 35.7736 28.302 35.7421 27.3517C35.7421 26.4015 35.6947 25.4512 35.6 24.501C35.5369 23.5507 35.4422 22.7905 35.3159 22.2203L35.458 21.8402C37.3204 21.08 39.1985 20.4623 41.0925 19.9872C43.018 19.5121 45.054 19.2745 47.2005 19.2745C49.0629 19.2745 50.8464 19.5279 52.5509 20.0347C54.287 20.5098 55.8338 21.2859 57.1911 22.3629C58.5484 23.4081 59.6217 24.8019 60.4108 26.544C61.2 28.2862 61.5945 30.4084 61.5945 32.9108C61.5945 34.6846 61.3262 36.3951 60.7896 38.0422C60.253 39.6894 59.4165 41.1464 58.2801 42.4134C57.1753 43.6805 55.7549 44.6941 54.0187 45.4543C52.2826 46.1828 50.1835 46.5471 47.7213 46.5471C46.8059 46.5471 45.9221 46.4837 45.0698 46.357C44.2175 46.262 43.5862 46.1511 43.1758 46.0244L43.5546 39.9903C43.8703 40.1486 44.2649 40.2753 44.7384 40.3704C45.2434 40.4337 45.8274 40.4654 46.4903 40.4654C48.8577 40.4654 50.5465 39.7844 51.5566 38.4223C52.5667 37.0286 53.0718 35.1914 53.0718 32.9108C53.0718 30.6618 52.5667 28.8722 51.5566 27.5418C50.578 26.1798 48.9998 25.4987 46.8217 25.4987C45.9063 25.4987 45.054 25.6254 44.2649 25.8788C43.4757 26.1322 42.9549 26.3856 42.7024 26.639L43.3179 24.5485C43.6651 25.0236 43.8861 25.6254 43.9808 26.354C44.0755 27.0825 44.1228 28.0169 44.1228 29.1572V57H35.7894Z" fill="#B83232"/>
<path d="M67.232 57V29.7274C67.232 29.0939 67.2162 28.302 67.1847 27.3517C67.1847 26.4015 67.1373 25.4512 67.0426 24.501C66.9795 23.5507 66.8848 22.7905 66.7585 22.2203L66.9006 21.8402C68.763 21.08 70.6411 20.4623 72.5351 19.9872C74.4606 19.5121 76.4966 19.2745 78.6431 19.2745C80.5055 19.2745 82.2889 19.5279 83.9935 20.0347C85.7296 20.5098 87.2764 21.2859 88.6337 22.3629C89.991 23.4081 91.0643 24.8019 91.8534 26.544C92.6426 28.2862 93.0371 30.4084 93.0371 32.9108C93.0371 34.6846 92.7688 36.3951 92.2322 38.0422C91.6956 39.6894 90.8591 41.1464 89.7227 42.4134C88.6179 43.6805 87.1974 44.6941 85.4613 45.4543C83.7252 46.1828 81.6261 46.5471 79.1639 46.5471C78.2485 46.5471 77.3647 46.4837 76.5124 46.357C75.6601 46.262 75.0288 46.1511 74.6184 46.0244L74.9972 39.9903C75.3129 40.1486 75.7075 40.2753 76.1809 40.3704C76.686 40.4337 77.27 40.4654 77.9329 40.4654C80.3003 40.4654 81.9891 39.7844 82.9992 38.4223C84.0093 37.0286 84.5143 35.1914 84.5143 32.9108C84.5143 30.6618 84.0093 28.8722 82.9992 27.5418C82.0206 26.1798 80.4423 25.4987 78.2643 25.4987C77.3489 25.4987 76.4966 25.6254 75.7075 25.8788C74.9183 26.1322 74.3975 26.3856 74.1449 26.639L74.7605 24.5485C75.1077 25.0236 75.3287 25.6254 75.4234 26.354C75.5181 27.0825 75.5654 28.0169 75.5654 29.1572V57H67.232Z" fill="#B83232"/>
<path d="M98.5359 45.9769V17.8016C98.5359 17.1364 98.5201 16.3287 98.4885 15.3784C98.4885 14.3965 98.4412 13.4462 98.3465 12.5276C98.2834 11.5774 98.1887 10.8171 98.0624 10.247L98.2044 9.86688H106.869V45.9769H98.5359Z" fill="#B83232"/>
<path d="M127.951 46.4996C125.647 46.4996 123.516 46.2462 121.559 45.7394C119.633 45.2326 117.976 44.4565 116.587 43.4112C115.23 42.3343 114.172 40.9247 113.415 39.1825C112.689 37.4404 112.326 35.3498 112.326 32.9108C112.326 30.06 112.862 27.621 113.936 25.5938C115.009 23.5349 116.54 21.9669 118.529 20.8899C120.517 19.813 122.869 19.2745 125.584 19.2745C128.519 19.2745 130.918 19.8922 132.781 21.1275C134.643 22.3629 135.984 24.0575 136.805 26.2114C137.657 28.3654 138.005 30.8044 137.847 33.5285L137.8 35.2389H117.44V30.2976H129.845V30.06C129.845 28.4762 129.482 27.2567 128.756 26.4015C128.061 25.5146 126.957 25.0711 125.441 25.0711C124.463 25.0711 123.611 25.2928 122.885 25.7363C122.19 26.1798 121.638 26.9241 121.227 27.9694C120.849 28.983 120.659 30.3768 120.659 32.1506V33.671C120.659 35.3498 120.991 36.6643 121.654 37.6146C122.348 38.5332 123.295 39.1984 124.495 39.6102C125.694 39.9903 127.099 40.1803 128.709 40.1803C130.161 40.1803 131.486 40.0378 132.686 39.7527C133.917 39.4676 134.864 39.135 135.527 38.7549H136V45.2642C135.053 45.6443 133.917 45.9453 132.591 46.167C131.297 46.3887 129.75 46.4996 127.951 46.4996Z" fill="#B83232"/>
<path d="M140.642 11.7674H168.861V19.0844H158.918V45.9769H150.537V19.0844H140.642V11.7674Z" fill="#B83232"/>
<path d="M184.548 46.4996C182.243 46.4996 180.113 46.2462 178.156 45.7394C176.23 45.2326 174.573 44.4565 173.184 43.4112C171.827 42.3343 170.769 40.9247 170.012 39.1825C169.286 37.4404 168.923 35.3498 168.923 32.9108C168.923 30.06 169.459 27.621 170.532 25.5938C171.606 23.5349 173.137 21.9669 175.125 20.8899C177.114 19.813 179.466 19.2745 182.18 19.2745C185.116 19.2745 187.515 19.8922 189.377 21.1275C191.24 22.3629 192.581 24.0575 193.402 26.2114C194.254 28.3654 194.601 30.8044 194.444 33.5285L194.396 35.2389H174.036V30.2976H186.442V30.06C186.442 28.4762 186.079 27.2567 185.353 26.4015C184.658 25.5146 183.553 25.0711 182.038 25.0711C181.06 25.0711 180.207 25.2928 179.481 25.7363C178.787 26.1798 178.234 26.9241 177.824 27.9694C177.445 28.983 177.256 30.3768 177.256 32.1506V33.671C177.256 35.3498 177.587 36.6643 178.25 37.6146C178.945 38.5332 179.892 39.1984 181.091 39.6102C182.291 39.9903 183.695 40.1803 185.305 40.1803C186.757 40.1803 188.083 40.0378 189.283 39.7527C190.514 39.4676 191.461 39.135 192.123 38.7549H192.597V45.2642C191.65 45.6443 190.514 45.9453 189.188 46.167C187.894 46.3887 186.347 46.4996 184.548 46.4996Z" fill="#B83232"/>
<path d="M198.654 32.9108C198.654 29.7432 199.301 27.1617 200.596 25.1661C201.89 23.1389 203.657 21.6502 205.899 20.6999C208.171 19.7496 210.76 19.2745 213.664 19.2745C215.873 19.2745 217.783 19.5596 219.393 20.1297V26.7816H218.872C218.336 26.5282 217.72 26.3223 217.026 26.1639C216.331 25.9739 215.51 25.8788 214.563 25.8788C212.196 25.8788 210.365 26.4807 209.071 27.6843C207.777 28.8563 207.13 30.5985 207.13 32.9108C207.13 35.1914 207.777 36.9336 209.071 38.1372C210.365 39.3092 212.196 39.8952 214.563 39.8952C215.51 39.8952 216.331 39.8161 217.026 39.6577C217.72 39.4676 218.336 39.2617 218.872 39.04H219.393V45.6443C217.783 46.2145 215.873 46.4996 213.664 46.4996C210.697 46.4996 208.077 46.0244 205.804 45.0742C203.563 44.1239 201.811 42.651 200.548 40.6555C199.286 38.6282 198.654 36.0467 198.654 32.9108Z" fill="#B83232"/>
<path d="M225 45.9769V17.7541C225 17.1206 224.984 16.3287 224.952 15.3784C224.952 14.3965 224.905 13.4462 224.81 12.5276C224.747 11.5774 224.653 10.8171 224.526 10.247L224.668 9.86688H233.333V23.4557L231.581 20.6999C232.528 20.2881 233.538 19.9555 234.612 19.7021C235.716 19.417 237.026 19.2745 238.542 19.2745C240.246 19.2745 241.809 19.5121 243.229 19.9872C244.65 20.4307 245.849 21.1275 246.828 22.0778C247.838 23.028 248.611 24.2634 249.148 25.7838C249.716 27.2726 250 29.0622 250 31.1528V45.9769H241.667V31.3429C241.667 29.9491 241.446 28.8722 241.004 28.112C240.562 27.3201 239.946 26.7658 239.157 26.449C238.368 26.1006 237.437 25.9263 236.364 25.9263C235.858 25.9263 235.275 25.9897 234.612 26.1164C233.949 26.2431 233.349 26.354 232.812 26.449C232.307 26.544 231.96 26.6074 231.771 26.639L233.333 23.028V45.9769H225Z" fill="#B83232"/>
</svg>
